<svg width="512" height="512" viewBox="0 0 512 512" fill="none" xmlns="http://www.w3.org/2000/svg">
<g clip-path="url(#clip0_166_49)">
<path d="M431.457 150.777C439.767 158.041 446.541 165.367 452 175C450.972 175.75 449.945 176.5 448.886 177.273C427.915 192.707 409.732 210.415 402 236C401.708 236.964 401.708 236.964 401.41 237.947C393.178 266.437 396.768 299.541 410.312 325.875C422.27 346.703 439.294 360.574 460 372C461.671 372.992 463.34 373.989 465 375C464.43 380.788 462.827 385.635 460.625 391C460.273 391.863 459.922 392.726 459.559 393.615C445.734 427.002 426.81 459.318 402 485.824C399.881 488.075 399.881 488.075 397.668 490.953C394.938 494.249 391.816 496.635 388.312 499.062C387.694 499.494 387.075 499.926 386.438 500.371C370.189 511.526 353.476 514.088 334.095 510.696C324.017 508.635 314.44 504.677 304.842 501.063C272.528 488.976 247.475 492.809 215.761 504.562C199.742 510.443 180.238 516.525 163.336 510.09C162.565 509.73 161.794 509.37 161 509C160.002 508.547 159.004 508.095 157.976 507.629C141.675 499.556 129.12 486.127 118 472C117.519 471.395 117.038 470.791 116.542 470.168C73.2813 415.638 46.4638 346.932 46.6247 276.937C46.6253 276.041 46.6258 275.145 46.6264 274.222C46.6664 259.836 47.492 246.012 50.9997 232C51.2141 231.132 51.4284 230.265 51.6492 229.371C60.8469 193.389 81.6947 160.27 114 141C141.066 125.538 170.63 119.751 201.066 127.729C214.698 131.503 227.837 136.695 240.99 141.858C245.533 143.581 249.906 145.197 254.75 145.75C255.508 145.848 256.266 145.946 257.047 146.047C266.021 145.904 274.197 142.648 282.491 139.49C285.807 138.229 289.134 136.997 292.461 135.766C293.441 135.402 293.441 135.402 294.441 135.031C340.936 117.874 391.525 117.829 431.457 150.777Z" fill="#5B3E96"/>
<path d="M359 -4.30122e-05C359.58 19.1684 357.725 36.3302 350 54C349.548 55.0454 349.095 56.0908 348.629 57.1679C342.42 70.4841 333.126 81.508 323 92C322.3 92.7515 321.6 93.503 320.879 94.2773C306.401 109.454 286.167 118.273 265.313 119.156C262.195 119.184 259.111 119.21 256 119C253.668 116.668 254.759 110.997 254.75 107.875C254.784 77.957 267.599 52.4922 288.188 31.3125C305.864 13.7666 333.767 -0.948246 359 -4.30122e-05Z" fill="#5B3E96"/>
</g>
<defs>
<clipPath id="clip0_166_49">
<rect width="512" height="512" fill="white"/>
</clipPath>
</defs>
</svg>
