<svg width="512" height="512" viewBox="0 0 512 512" fill="none" xmlns="http://www.w3.org/2000/svg">
<g clip-path="url(#clip0_152_2)">
<path d="M313.488 -0.168085C314.578 -0.172184 315.667 -0.176283 316.789 -0.180506C320.297 -0.190021 323.805 -0.190041 327.312 -0.187616C329.096 -0.188205 329.096 -0.188205 330.916 -0.188806C369.961 -0.173299 369.961 -0.173299 389 2.99988C389 30.0599 389 57.1199 389 84.9999C365.875 85.4374 365.875 85.4374 358.667 85.568C329.563 84.8716 329.563 84.8716 304.875 97.9999C298.167 106.17 296.932 117.652 296.795 127.853C296.785 128.508 296.775 129.163 296.764 129.838C296.733 131.932 296.708 134.027 296.684 136.121C296.656 138.057 296.656 138.057 296.627 140.031C296.559 144.833 296.499 149.635 296.438 154.437C296.293 165.183 296.149 175.929 296 187C325.7 187 355.4 187 386 187C384.851 203.083 384.851 203.083 383.969 209.749C383.869 210.524 383.77 211.299 383.668 212.097C383.354 214.542 383.034 216.986 382.715 219.43C382.517 220.964 382.319 222.499 382.122 224.033C381.398 229.648 380.667 235.261 379.938 240.875C378.308 253.456 376.679 266.037 375 279C348.93 279 322.86 279 296 279C296 355.89 296 432.78 296 512C264.65 512 233.3 512 201 512C201 435.11 201 358.22 201 279C175.26 279 149.52 279 123 279C123 248.64 123 218.28 123 187C148.74 187 174.48 187 201 187C200.921 163.218 200.921 163.218 200.82 139.436C200.712 102.048 202.783 64.2823 229 34.9999C229.799 34.1066 230.598 33.2132 231.422 32.2929C252.764 9.71954 282.935 -0.132332 313.488 -0.168085Z" fill="#5B3E96" fill-opacity="0.5"/>
</g>
<defs>
<clipPath id="clip0_152_2">
<rect width="512" height="512" fill="white"/>
</clipPath>
</defs>
</svg>
