<svg width="512" height="427" viewBox="0 0 512 427" fill="none" xmlns="http://www.w3.org/2000/svg">
<path d="M223.812 2.14392C231.837 6.47548 238.291 13.6233 244.75 19.9564C245.491 20.6602 246.232 21.3641 246.996 22.0892C254.087 29.0657 257.507 35.9157 258.02 45.8939C257.915 60.3199 247.245 69.791 237.545 79.3771C236.518 80.4027 235.493 81.4289 234.468 82.4558C231.714 85.2097 228.952 87.9544 226.188 90.6974C223.289 93.5773 220.399 96.4659 217.508 99.3536C212.046 104.806 206.576 110.251 201.104 115.693C194.868 121.896 188.641 128.106 182.415 134.318C169.619 147.082 156.813 159.835 144 172.581C144.717 172.58 145.434 172.579 146.173 172.578C188.686 172.511 231.198 172.459 273.711 172.428C278.818 172.424 283.925 172.421 289.032 172.417C290.048 172.416 291.065 172.415 292.112 172.414C308.565 172.401 325.017 172.378 341.47 172.35C358.357 172.322 375.244 172.305 392.131 172.299C402.547 172.295 412.964 172.282 423.381 172.258C430.528 172.242 437.675 172.237 444.822 172.241C448.943 172.243 453.064 172.24 457.185 172.224C460.964 172.209 464.743 172.209 468.522 172.219C470.523 172.221 472.525 172.208 474.526 172.194C485.489 172.248 495.51 173.274 504.09 180.609C512.543 189.339 512.273 198.445 512.35 209.921C512.367 211.724 512.394 213.527 512.432 215.329C512.693 227.673 512.37 236.862 503.75 246.456C495.581 253.707 487.282 254.165 476.706 254.1C475.263 254.106 473.82 254.114 472.377 254.123C468.429 254.143 464.482 254.139 460.534 254.13C456.271 254.125 452.007 254.143 447.743 254.159C440.362 254.182 432.981 254.191 425.6 254.19C414.929 254.188 404.257 254.208 393.585 254.234C376.27 254.275 358.955 254.298 341.639 254.31C324.822 254.322 308.005 254.342 291.187 254.374C290.15 254.376 289.113 254.378 288.044 254.38C282.841 254.39 277.638 254.399 272.435 254.409C229.29 254.492 186.145 254.546 143 254.581C143.557 255.134 144.114 255.686 144.688 256.256C158.265 269.722 171.829 283.203 185.376 296.699C191.929 303.225 198.485 309.747 205.053 316.257C210.78 321.934 216.498 327.62 222.205 333.316C225.225 336.33 228.25 339.339 231.285 342.338C234.147 345.165 236.996 348.004 239.837 350.853C240.877 351.891 241.921 352.926 242.97 353.955C251.282 362.122 257.542 369.833 258.137 381.843C257.496 394.683 249.379 402.565 240.75 411.206C239.833 412.147 238.917 413.088 237.973 414.058C230.498 421.564 223.817 426.648 212.875 426.894C198.582 426.735 190.612 417.346 181.08 407.801C179.946 406.673 179.946 406.673 178.79 405.521C176.28 403.019 173.772 400.513 171.265 398.007C169.457 396.205 167.65 394.402 165.842 392.6C160.947 387.718 156.056 382.833 151.166 377.947C148.109 374.894 145.052 371.841 141.995 368.788C133.521 360.326 125.048 351.864 116.578 343.397C116.038 342.857 115.497 342.316 114.94 341.759C114.398 341.218 113.856 340.676 113.297 340.118C112.199 339.02 111.101 337.922 110.003 336.825C109.186 336.008 109.186 336.008 108.352 335.175C99.5148 326.341 90.6705 317.514 81.8233 308.69C72.7276 299.618 63.6375 290.541 54.5531 281.457C49.4572 276.362 44.3589 271.27 39.2545 266.184C34.4574 261.404 29.6681 256.616 24.884 251.823C23.1273 250.066 21.3682 248.311 19.6062 246.559C17.2013 244.167 14.8059 241.765 12.4125 239.361C11.7137 238.671 11.0149 237.98 10.2949 237.268C3.22167 230.123 -0.11703 223.981 -0.25 213.831C0.00446761 194.883 17.1548 183.269 29.6936 170.711C31.4851 168.913 33.2763 167.115 35.0674 165.317C40.4133 159.952 45.7633 154.591 51.1143 149.232C53.133 147.209 55.1514 145.187 57.1699 143.164C66.0795 134.236 74.9904 125.309 83.9054 116.387C86.0788 114.211 88.2522 112.036 90.4255 109.861C90.9656 109.32 91.5057 108.78 92.0622 108.223C100.828 99.448 109.586 90.6649 118.34 81.8783C127.346 72.8394 136.36 63.8081 145.38 54.7841C150.438 49.7242 155.492 44.6611 160.538 39.5895C165.279 34.8247 170.03 30.0701 174.788 25.3224C176.532 23.5795 178.272 21.8333 180.008 20.0834C182.38 17.6937 184.764 15.3168 187.151 12.9425C188.175 11.9022 188.175 11.9022 189.22 10.8408C198.456 1.72718 211.081 -3.05526 223.812 2.14392Z" fill="#FCA311"/>
</svg>
