<svg width="512" height="512" viewBox="0 0 512 512" fill="none" xmlns="http://www.w3.org/2000/svg">
<g clip-path="url(#clip0_152_4)">
<path d="M471.633 186.957C472.414 187.631 473.195 188.305 474 189C474.678 189.581 475.356 190.163 476.055 190.762C495.025 208.322 503.615 235.297 508.25 259.937C508.401 260.733 508.552 261.529 508.708 262.348C511.713 279.654 512.292 297.058 512.227 314.579C512.226 316.75 512.227 318.92 512.228 321.091C512.229 326.912 512.217 332.733 512.203 338.554C512.19 344.663 512.189 350.773 512.187 356.883C512.181 368.421 512.164 379.959 512.144 391.497C512.117 407.11 512.107 422.724 512.095 438.337C512.076 462.892 512.036 487.446 512 512C476.69 512 441.38 512 405 512C404.963 497.999 404.925 483.999 404.887 469.574C404.856 460.683 404.825 451.792 404.791 442.9C404.737 428.8 404.685 414.701 404.654 400.601C404.63 390.33 404.597 380.058 404.551 369.787C404.527 364.356 404.509 358.924 404.502 353.492C404.496 348.365 404.476 343.238 404.446 338.11C404.437 336.243 404.433 334.375 404.435 332.508C404.449 311.377 403.144 286.072 387.898 269.75C377.192 259.742 364.728 256.416 350.25 256.562C348.682 256.573 348.682 256.573 347.082 256.583C331.253 256.909 318.066 261.377 306.426 272.293C289.969 290.658 288.544 317.246 288.568 340.69C288.559 342.575 288.548 344.459 288.537 346.344C288.509 351.394 288.5 356.444 288.494 361.495C288.484 366.797 288.458 372.1 288.434 377.402C288.39 387.413 288.362 397.425 288.339 407.436C288.306 420.986 288.251 434.535 288.197 448.084C288.112 469.389 288.059 490.695 288 512C252.69 512 217.38 512 181 512C181 399.14 181 286.28 181 170C214.66 170 248.32 170 283 170C283.33 184.85 283.66 199.7 284 215C286.97 210.71 289.94 206.42 293 202C299.968 193.27 307.891 186.395 317 180C318.16 179.172 318.16 179.172 319.344 178.328C362.319 150.183 432.399 154.384 471.633 186.957Z" fill="black" fill-opacity="0.5"/>
<path d="M8 170C43.31 170 78.62 170 115 170C115 282.86 115 395.72 115 512C79.69 512 44.38 512 8 512C8 399.14 8 286.28 8 170Z" fill="black" fill-opacity="0.5"/>
<path d="M85.9999 4.00008C87.4211 4.63623 87.4211 4.63623 88.871 5.28523C95.9101 8.79014 101.449 13.4784 107 19.0001C107.829 19.7774 107.829 19.7774 108.676 20.5704C112.463 24.4701 114.804 29.1352 117.25 33.9376C117.592 34.606 117.933 35.2745 118.286 35.9632C124.718 49.1027 125.428 66.2164 121.375 80.2501C114.95 97.347 104.139 110.832 87.4999 118.875C71.0682 125.64 54.7029 126.107 37.9999 120C21.3083 112.831 10.6289 100.511 3.22645 84.2384C-1.90022 70.7033 -2.39307 53.404 2.74598 39.7774C3.15977 38.8609 3.57356 37.9444 3.99989 37.0001C4.42399 36.0526 4.84809 35.1052 5.28505 34.129C8.78995 27.0899 13.4782 21.5512 18.9999 16.0001C19.5181 15.4471 20.0363 14.8941 20.5702 14.3243C24.4699 10.5369 29.135 8.19608 33.9374 5.75008C34.6058 5.40832 35.2743 5.06655 35.963 4.71443C50.8108 -2.5546 70.9171 -2.80947 85.9999 4.00008Z" fill="black" fill-opacity="0.5"/>
</g>
<defs>
<clipPath id="clip0_152_4">
<rect width="512" height="512" fill="white"/>
</clipPath>
</defs>
</svg>
