<svg width="512" height="513" viewBox="0 0 512 513" fill="none" xmlns="http://www.w3.org/2000/svg">
<g clip-path="url(#clip0_166_44)">
<path d="M38.0004 18C38.6321 18.6329 39.2637 19.2659 39.9145 19.918C42.4024 22.4067 44.9003 24.8852 47.3989 27.3633C49.0578 29.013 50.7166 30.6627 52.3754 32.3125C53.6129 33.5374 53.6129 33.5374 54.8754 34.7871C59.1865 39.0811 63.3163 43.4444 67.2802 48.0593C70.3585 51.5321 73.6888 54.7518 77.0004 58C81.6085 62.5198 86.0106 67.1093 90.2231 72C93.3243 75.4897 96.6688 78.7322 100 82C104.608 86.5198 109.011 91.1093 113.223 96C116.324 99.4897 119.669 102.732 123 106C126.959 109.883 130.851 113.763 134.469 117.969C138.262 122.372 142.356 126.43 146.5 130.5C151.279 135.193 155.872 139.94 160.241 145.018C163.334 148.503 166.675 151.738 170 155C174.608 159.52 179.011 164.109 183.223 169C186.324 172.49 189.669 175.732 193 179C197.608 183.52 202.011 188.109 206.223 193C209.324 196.49 212.669 199.732 216 203C219.959 206.883 223.851 210.763 227.469 214.969C231.262 219.372 235.356 223.43 239.5 227.5C244.329 232.243 248.982 237.038 253.397 242.17C255.64 244.73 258.014 247.11 260.438 249.5C261.303 250.356 262.168 251.212 263.059 252.094C263.7 252.723 264.34 253.352 265 254C263.686 256.918 262.284 258.949 259.989 261.172C259.395 261.755 258.801 262.337 258.19 262.938C257.57 263.536 256.951 264.134 256.313 264.75C252.591 268.364 248.959 271.986 245.575 275.922C241.102 281.111 236.201 285.847 231.317 290.645C227.282 294.635 223.461 298.717 219.76 303.018C216.037 307.212 211.964 311.074 207.961 315C204.683 318.24 201.509 321.507 198.5 325C194.25 329.935 189.608 334.443 184.961 339C181.683 342.24 178.509 345.507 175.5 349C171.25 353.935 166.608 358.443 161.961 363C158.683 366.24 155.509 369.507 152.5 373C148.25 377.935 143.608 382.443 138.961 387C135.694 390.23 132.529 393.485 129.532 396.969C125.075 402.143 120.186 406.863 115.317 411.645C111.282 415.635 107.461 419.717 103.76 424.018C100.037 428.212 95.9639 432.074 91.9614 436C88.6834 439.24 85.5091 442.507 82.5004 446C78.2501 450.935 73.6079 455.443 68.9614 460C65.6899 463.234 62.5215 466.493 59.52 469.98C55.7888 474.313 51.7667 478.309 47.6879 482.312C46.2729 483.702 44.86 485.094 43.4497 486.488C42.5267 487.394 42.5267 487.394 41.5852 488.318C39.8021 490.117 39.8021 490.117 38.0004 493C37.3404 493 36.6804 493 36.0004 493C35.029 491.195 34.074 489.38 33.1254 487.562C32.3249 486.048 32.3249 486.048 31.5082 484.504C27.336 474.808 27.7148 465.017 27.7397 454.681C27.7367 452.909 27.7328 451.136 27.7281 449.364C27.7179 444.507 27.72 439.65 27.7243 434.792C27.7268 429.549 27.7178 424.306 27.7103 419.062C27.6975 408.794 27.6957 398.526 27.6981 388.257C27.6999 379.91 27.6981 371.562 27.6939 363.214C27.6933 362.026 27.6927 360.837 27.6921 359.613C27.6908 357.198 27.6896 354.784 27.6884 352.37C27.6775 329.729 27.6797 307.089 27.6858 284.448C27.691 263.745 27.6797 243.042 27.6607 222.339C27.6413 201.073 27.6331 179.807 27.6368 158.541C27.6387 146.605 27.6363 134.67 27.6221 122.734C27.6102 112.571 27.6088 102.409 27.6209 92.2469C27.6268 87.0645 27.6279 81.8823 27.6159 76.7C27.605 71.9502 27.6082 67.2006 27.6222 62.4508C27.6248 60.7382 27.6225 59.0255 27.6144 57.3129C27.5531 43.2408 28.5524 30.8373 37.0004 19C37.3304 18.67 37.6604 18.34 38.0004 18Z" fill="#5B3E96"/>
<path d="M285 276C289.534 279.739 293.655 283.615 297.562 288C302.546 293.503 307.708 298.787 313.016 303.979C315.944 306.863 318.735 309.803 321.418 312.918C325.079 317.157 329.003 321.08 333 325C337.631 329.542 342.054 334.155 346.286 339.072C349.558 342.752 353.152 346.117 356.721 349.506C358.202 350.949 359.608 352.47 361 354C361 354.99 361 355.98 361 357C360.332 357.372 359.663 357.743 358.975 358.126C342.193 367.466 342.193 367.466 325.586 377.11C319.273 380.852 312.921 384.524 306.562 388.188C305.455 388.826 304.348 389.464 303.207 390.121C300.937 391.429 298.666 392.737 296.395 394.044C290.928 397.193 285.464 400.347 280 403.5C277.833 404.75 275.667 406 273.5 407.25C272.428 407.869 271.355 408.488 270.25 409.125C260.5 414.75 260.5 414.75 257.25 416.625C255.084 417.874 252.919 419.124 250.754 420.373C245.314 423.512 239.873 426.65 234.43 429.785C223.978 435.807 213.537 441.847 203.125 447.938C193.855 453.359 184.542 458.702 175.212 464.019C167.074 468.658 158.96 473.334 150.875 478.062C139.267 484.85 127.64 491.606 115.974 498.293C114.07 499.386 112.168 500.482 110.269 501.582C95.7632 509.978 84.0985 514.805 67 513C63.4531 511.98 63.4531 511.98 61 511C62.6098 506.902 65.5761 504.235 68.6875 501.25C72.0721 497.982 75.3232 494.677 78.3945 491.109C82.6851 486.142 87.356 481.593 92.0391 477C95.317 473.76 98.4914 470.493 101.5 467C105.75 462.065 110.393 457.557 115.039 453C118.317 449.76 121.491 446.493 124.5 443C128.75 438.065 133.393 433.557 138.039 429C141.307 425.77 144.472 422.515 147.469 419.031C151.926 413.857 156.814 409.137 161.684 404.355C165.718 400.365 169.54 396.283 173.24 391.982C176.964 387.788 181.037 383.926 185.039 380C188.317 376.76 191.491 373.493 194.5 370C198.75 365.065 203.393 360.557 208.039 356C211.317 352.76 214.491 349.493 217.5 346C221.75 341.065 226.393 336.557 231.039 332C234.317 328.76 237.491 325.493 240.5 322C244.75 317.065 249.393 312.557 254.039 308C257.286 304.79 260.434 301.558 263.41 298.094C267.517 293.326 271.966 288.924 276.438 284.5C277.264 283.678 278.091 282.855 278.943 282.008C280.96 280.003 282.979 278 285 276Z" fill="#5B3E96"/>
<path d="M75.5 -0.312419C76.2399 -0.341423 76.9798 -0.370427 77.7422 -0.400309C89.2539 -0.527999 99.0302 4.73098 108.75 10.3751C109.827 10.9894 110.904 11.6037 112.014 12.2367C115.35 14.1449 118.676 16.0696 122 18.0001C123.012 18.5868 124.025 19.1735 125.068 19.7779C130.022 22.6524 134.969 25.5405 139.91 28.4376C146.216 32.1322 152.543 35.7886 158.875 39.4376C160.495 40.3714 160.495 40.3714 162.148 41.3241C164.338 42.5858 166.528 43.8475 168.718 45.109C174.147 48.2369 179.573 51.3687 185 54.5001C187.167 55.7501 189.333 57.0001 191.5 58.2501C230.5 80.7501 269.5 103.25 308.5 125.75C309.574 126.37 310.648 126.99 311.755 127.628C313.905 128.868 316.054 130.108 318.204 131.349C323.273 134.274 328.343 137.198 333.413 140.12C335.804 141.498 338.195 142.876 340.586 144.255C342.27 145.225 343.954 146.196 345.639 147.166C346.662 147.756 347.684 148.346 348.738 148.953C349.636 149.47 350.533 149.988 351.458 150.521C353.986 151.992 356.496 153.49 359 155C358.421 158.533 357.204 160.145 354.648 162.609C353.961 163.282 353.274 163.955 352.566 164.649C351.843 165.342 351.12 166.036 350.375 166.75C345.636 171.341 341.095 175.972 336.795 180.978C332.859 185.412 328.545 189.492 324.316 193.645C320.282 197.635 316.46 201.717 312.76 206.018C309.036 210.212 304.963 214.074 300.961 218C296.953 221.962 293.165 226.017 289.543 230.336C288 232 288 232 285 234C281.849 230.874 278.702 227.745 275.558 224.613C274.491 223.551 273.423 222.49 272.355 221.43C266.936 216.054 261.6 210.668 256.639 204.859C253.596 201.407 250.284 198.221 247 195C242.392 190.48 237.99 185.891 233.777 181C230.676 177.51 227.332 174.268 224 171C220.041 167.117 216.149 163.237 212.531 159.031C208.739 154.628 204.644 150.57 200.5 146.5C195.721 141.807 191.128 137.06 186.76 131.982C183.666 128.497 180.326 125.262 177 122C172.392 117.48 167.99 112.891 163.777 108C160.676 104.51 157.332 101.268 154 98.0001C149.392 93.4803 144.99 88.8908 140.777 84.0001C137.676 80.5104 134.332 77.2679 131 74.0001C126.392 69.4803 121.99 64.8908 117.777 60.0001C114.676 56.5104 111.332 53.2679 108 50.0001C104.041 46.1172 100.149 42.2367 96.5312 38.0313C92.7386 33.628 88.6443 29.5702 84.5 25.5001C79.6581 20.7448 74.9674 15.9521 70.5681 10.7808C68.9743 8.97088 67.2972 7.29954 65.5625 5.62508C63 3.00008 63 3.00008 63 1.00008C67.1553 -0.147941 71.2123 -0.258643 75.5 -0.312419Z" fill="#5B3E96"/>
<path d="M385 171C388.785 172.416 392.197 174.154 395.699 176.168C396.812 176.806 397.926 177.445 399.073 178.102C400.278 178.797 401.483 179.492 402.687 180.188C403.941 180.908 405.195 181.629 406.449 182.349C409.033 183.833 411.616 185.32 414.197 186.809C417.748 188.856 421.301 190.897 424.855 192.938C430.209 196.014 435.555 199.106 440.897 202.205C443.992 203.995 447.095 205.772 450.199 207.547C452.154 208.677 454.108 209.807 456.062 210.938C456.936 211.433 457.81 211.928 458.71 212.438C470.997 219.599 480.498 229.068 484.511 243.027C487.596 255.49 486.722 269.029 480.25 280.312C479.197 281.896 478.115 283.46 477 285C476.52 285.686 476.04 286.372 475.546 287.078C465.927 299.418 448.677 306.257 435.273 313.859C428.566 317.664 421.902 321.539 415.25 325.438C406.221 330.725 397.145 335.916 388 341C382.802 336.866 378.36 332.221 373.908 327.315C369.419 322.392 364.746 317.679 359.984 313.021C357.055 310.137 354.265 307.197 351.582 304.082C347.92 299.843 343.996 295.92 340 292C336.036 288.112 332.139 284.226 328.515 280.016C324.804 275.707 320.806 271.731 316.75 267.75C315.346 266.372 313.945 264.992 312.546 263.609C311.936 263.011 311.326 262.412 310.698 261.796C310.137 261.203 309.577 260.611 309 260C308.085 259.053 308.085 259.053 307.153 258.087C306 256 306 256 306.514 253.564C308.267 250.539 310.257 248.421 312.761 245.98C313.23 245.518 313.699 245.056 314.182 244.58C315.677 243.108 317.181 241.647 318.687 240.188C324.431 234.581 330.124 228.999 335.339 222.888C339.013 218.712 343.07 214.893 347.039 211C350.317 207.76 353.491 204.493 356.5 201C360.75 196.065 365.392 191.557 370.039 187C374.058 183.028 377.878 178.956 381.554 174.664C382.654 173.398 383.814 172.185 385 171Z" fill="#5B3E96"/>
</g>
<defs>
<clipPath id="clip0_166_44">
<rect width="512" height="513" fill="white"/>
</clipPath>
</defs>
</svg>
