<svg width="513" height="428" viewBox="0 0 513 428" fill="none" xmlns="http://www.w3.org/2000/svg">
<path d="M314.551 3.95504C324.543 11.9858 333.371 21.6189 342.422 30.6645C344.219 32.4576 346.017 34.2505 347.815 36.0432C352.675 40.8897 357.531 45.7393 362.386 50.5901C365.421 53.6225 368.457 56.6541 371.493 59.6857C379.913 68.0928 388.331 76.5008 396.746 84.9123C397.283 85.4488 397.819 85.9852 398.372 86.538C398.91 87.0757 399.448 87.6134 400.002 88.1674C401.092 89.2568 402.182 90.3461 403.272 91.4355C403.812 91.9759 404.353 92.5162 404.91 93.073C413.686 101.845 422.469 110.61 431.254 119.373C440.291 128.386 449.323 137.405 458.348 146.429C463.41 151.49 468.473 156.548 473.543 161.599C478.306 166.345 483.06 171.098 487.81 175.856C489.554 177.601 491.3 179.343 493.049 181.082C495.436 183.457 497.814 185.84 500.19 188.226C500.884 188.912 501.577 189.597 502.292 190.304C509.349 197.434 512.668 203.58 512.801 213.705C512.547 232.66 495.389 244.27 482.842 256.826C481.049 258.623 479.256 260.421 477.463 262.219C472.616 267.079 467.767 271.935 462.916 276.79C459.884 279.825 456.852 282.861 453.82 285.897C445.413 294.317 437.005 302.735 428.594 311.15C428.057 311.687 427.521 312.223 426.968 312.776C426.43 313.314 425.893 313.852 425.339 314.406C424.249 315.496 423.16 316.586 422.071 317.676C421.53 318.216 420.99 318.757 420.433 319.314C411.661 328.09 402.896 336.873 394.134 345.658C385.12 354.695 376.101 363.727 367.077 372.752C362.016 377.814 356.959 382.877 351.907 387.947C347.161 392.71 342.408 397.464 337.65 402.214C335.905 403.958 334.163 405.704 332.424 407.453C330.05 409.84 327.666 412.218 325.28 414.594C324.594 415.288 323.909 415.981 323.202 416.696C316.073 423.753 309.926 427.072 299.801 427.205C287.815 427.02 282.447 422.668 274.142 414.502C272.562 412.966 270.949 411.474 269.325 409.986C260.915 402.155 254.401 394.292 253.926 382.268C254.73 367.294 265.789 358.564 275.801 348.592C276.817 347.576 277.833 346.56 278.848 345.544C281.583 342.809 284.321 340.077 287.06 337.345C289.929 334.482 292.796 331.615 295.664 328.749C301.084 323.332 306.506 317.918 311.93 312.504C318.108 306.337 324.284 300.167 330.459 293.996C343.153 281.313 355.851 268.633 368.551 255.955C367.474 255.953 367.474 255.953 366.376 255.951C323.83 255.87 281.284 255.779 238.738 255.675C233.628 255.662 228.519 255.65 223.41 255.638C221.884 255.634 221.884 255.634 220.327 255.63C203.86 255.59 187.394 255.558 170.927 255.528C154.029 255.496 137.13 255.458 120.232 255.412C109.806 255.384 99.3806 255.362 88.9547 255.348C81.8039 255.337 74.653 255.319 67.5022 255.296C63.3775 255.283 59.2529 255.272 55.1282 255.271C51.3478 255.269 47.5676 255.259 43.7872 255.241C41.7805 255.234 39.7737 255.236 37.7669 255.239C26.7518 255.171 17.0252 254.603 8.5511 246.955C2.65957 239.789 0.241814 233.46 0.180006 224.287C0.170977 223.452 0.161933 222.617 0.152631 221.757C0.138156 219.993 0.129264 218.229 0.125562 216.465C0.113713 213.793 0.0645434 211.124 0.0139899 208.453C-0.084771 198.168 0.140421 189.745 7.52815 181.84C17.3145 172.445 28.4671 172.806 41.3006 172.797C42.7091 172.792 44.1175 172.787 45.526 172.782C49.3867 172.768 53.2474 172.761 57.1082 172.754C61.2751 172.746 65.442 172.733 69.6089 172.72C76.8252 172.698 84.0415 172.68 91.2578 172.664C101.691 172.641 112.125 172.613 122.558 172.584C139.487 172.536 156.415 172.493 173.343 172.452C189.786 172.413 206.229 172.372 222.672 172.327C224.193 172.323 224.193 172.323 225.744 172.319C230.83 172.305 235.915 172.292 241.001 172.278C283.184 172.164 325.368 172.057 367.551 171.955C367.01 171.418 366.47 170.881 365.912 170.328C352.73 157.234 339.559 144.129 326.4 131.011C320.036 124.668 313.668 118.328 307.292 111.998C301.731 106.477 296.178 100.949 290.633 95.4134C287.699 92.4848 284.762 89.5597 281.816 86.6431C279.038 83.8924 276.27 81.1321 273.508 78.3647C272.498 77.3559 271.485 76.3505 270.468 75.3489C261.689 66.6969 254.627 58.6398 254.114 45.955C254.053 44.9238 253.992 43.8925 253.93 42.83C255.705 31.7576 262.579 24.0326 270.426 16.5175C271.286 15.6597 272.146 14.8018 273.032 13.9179C284.106 3.07038 299.309 -5.24394 314.551 3.95504Z" fill="#14213D"/>
</svg>
