<svg width="512" height="428" viewBox="0 0 512 428" fill="none" xmlns="http://www.w3.org/2000/svg">
<path d="M314 3.95504C323.992 11.9858 332.82 21.6189 341.871 30.6645C343.668 32.4576 345.466 34.2505 347.264 36.0432C352.124 40.8897 356.98 45.7393 361.835 50.5901C364.87 53.6225 367.906 56.6541 370.942 59.6857C379.362 68.0928 387.78 76.5008 396.195 84.9123C396.732 85.4488 397.268 85.9852 397.821 86.538C398.359 87.0757 398.897 87.6134 399.451 88.1674C400.541 89.2568 401.631 90.3461 402.721 91.4355C403.261 91.9759 403.802 92.5162 404.359 93.073C413.135 101.845 421.918 110.61 430.703 119.373C439.74 128.386 448.772 137.405 457.797 146.429C462.859 151.49 467.922 156.548 472.992 161.599C477.755 166.345 482.509 171.098 487.259 175.856C489.003 177.601 490.749 179.343 492.498 181.082C494.885 183.457 497.263 185.84 499.639 188.226C500.333 188.912 501.026 189.597 501.741 190.304C508.798 197.434 512.117 203.58 512.25 213.705C511.996 232.66 494.838 244.27 482.291 256.826C480.497 258.623 478.705 260.421 476.912 262.219C472.065 267.079 467.216 271.935 462.365 276.79C459.333 279.825 456.301 282.861 453.269 285.897C444.862 294.317 436.454 302.735 428.043 311.15C427.506 311.687 426.97 312.223 426.417 312.776C425.879 313.314 425.342 313.852 424.788 314.406C423.698 315.496 422.609 316.586 421.52 317.676C420.979 318.216 420.439 318.757 419.882 319.314C411.11 328.09 402.345 336.873 393.583 345.658C384.569 354.695 375.55 363.727 366.526 372.752C361.465 377.814 356.408 382.877 351.356 387.947C346.61 392.71 341.857 397.464 337.099 402.214C335.354 403.958 333.612 405.704 331.873 407.453C329.498 409.84 327.115 412.218 324.729 414.594C324.043 415.288 323.358 415.981 322.651 416.696C315.521 423.753 309.375 427.072 299.25 427.205C287.264 427.02 281.896 422.668 273.591 414.502C272.011 412.966 270.398 411.474 268.773 409.986C260.364 402.155 253.85 394.292 253.375 382.268C254.179 367.294 265.238 358.564 275.25 348.592C276.266 347.576 277.282 346.56 278.297 345.544C281.032 342.809 283.77 340.077 286.509 337.345C289.378 334.482 292.245 331.615 295.113 328.749C300.533 323.332 305.955 317.918 311.379 312.504C317.557 306.337 323.733 300.167 329.908 293.996C342.602 281.313 355.3 268.633 368 255.955C366.923 255.953 366.923 255.953 365.825 255.951C323.279 255.87 280.733 255.779 238.187 255.675C233.077 255.662 227.968 255.65 222.858 255.638C221.333 255.634 221.333 255.634 219.776 255.63C203.309 255.59 186.843 255.558 170.376 255.528C153.478 255.496 136.579 255.458 119.681 255.412C109.255 255.384 98.8296 255.362 88.4037 255.348C81.2528 255.337 74.102 255.319 66.9512 255.296C62.8265 255.283 58.7018 255.272 54.5771 255.271C50.7967 255.269 47.0165 255.259 43.2362 255.241C41.2294 255.234 39.2227 255.236 37.2159 255.239C26.2008 255.171 16.4742 254.603 8.00007 246.955C2.10855 239.789 -0.309212 233.46 -0.37102 224.287C-0.380048 223.452 -0.389092 222.617 -0.398394 221.757C-0.412869 219.993 -0.421761 218.229 -0.425463 216.465C-0.437313 213.793 -0.486482 211.124 -0.537035 208.453C-0.635796 198.168 -0.410604 189.745 6.97712 181.84C16.7634 172.445 27.9161 172.806 40.7496 172.797C42.1581 172.792 43.5665 172.787 44.975 172.782C48.8357 172.768 52.6964 172.761 56.5571 172.754C60.7241 172.746 64.891 172.733 69.0579 172.72C76.2742 172.698 83.4905 172.68 90.7068 172.664C101.14 172.641 111.574 172.613 122.007 172.584C138.936 172.536 155.864 172.493 172.792 172.452C189.235 172.413 205.678 172.372 222.121 172.327C223.642 172.323 223.642 172.323 225.193 172.319C230.279 172.305 235.364 172.292 240.45 172.278C282.633 172.164 324.817 172.057 367 171.955C366.459 171.418 365.919 170.881 365.361 170.328C352.179 157.234 339.008 144.129 325.849 131.011C319.485 124.668 313.117 118.328 306.741 111.998C301.18 106.477 295.627 100.949 290.082 95.4134C287.148 92.4848 284.211 89.5597 281.265 86.6431C278.487 83.8924 275.719 81.1321 272.957 78.3647C271.947 77.3559 270.934 76.3505 269.917 75.3489C261.138 66.6969 254.076 58.6398 253.563 45.955C253.502 44.9238 253.441 43.8925 253.379 42.83C255.154 31.7576 262.028 24.0326 269.875 16.5175C270.735 15.6597 271.595 14.8018 272.481 13.9179C283.555 3.07038 298.758 -5.24394 314 3.95504Z" fill="white"/>
</svg>
