<svg width="314" height="73" viewBox="0 0 314 73" fill="none" xmlns="http://www.w3.org/2000/svg">
<g clip-path="url(#clip0_149_11)">
<path d="M177 16C180.44 20.2048 180.88 24.7312 181 30C180.562 33.5625 180.562 33.5625 180 36C180.99 36 181.98 36 183 36C183.375 34.903 183.75 33.806 184.137 32.6758C184.653 31.2211 185.17 29.7667 185.688 28.3125C185.932 27.5912 186.176 26.87 186.428 26.1269C188.132 21.4037 189.911 18.1531 194 15C196.457 14.5117 196.457 14.5117 198.812 14.6875C199.603 14.7326 200.393 14.7777 201.207 14.8242C201.799 14.8822 202.39 14.9402 203 15C203.382 16.6561 203.714 18.3245 204 20C202.032 21.9682 198.652 21.6625 196 22C195.588 23.155 195.175 24.31 194.75 25.5C192.876 30.5087 190.667 35.4554 187.73 39.9375C186.73 42.0558 186.73 42.0558 187.898 44.3594C188.386 45.1483 188.873 45.9372 189.375 46.75C190.098 47.9488 190.098 47.9488 190.836 49.1718C191.22 49.7751 191.604 50.3784 192 51C195.449 49.5754 195.879 49.2842 197.438 45.625C199.188 41.5646 200.28 40.3024 204 38C206.761 37.7138 209.081 37.6141 211.812 37.75C212.505 37.768 213.198 37.7861 213.912 37.8047C215.609 37.8515 217.305 37.9232 219 38C218.67 41.63 218.34 45.26 218 49C221.073 48.3523 221.073 48.3523 222 46.1875C222.495 45.1047 222.495 45.1047 223 44C223.465 43.398 223.931 42.796 224.41 42.1758C226.094 39.8713 227.236 37.5852 228.438 35C230.201 31.3988 231.74 28.4734 235 26C235.66 26 236.32 26 237 26C236.335 30.3889 234.812 33.9811 233 38C233.922 37.9478 233.922 37.9478 234.863 37.8945C235.672 37.8674 236.48 37.8404 237.312 37.8125C238.513 37.7603 238.513 37.7603 239.738 37.707C242 38 242 38 243.766 39.2734C245.506 41.7074 245.469 44.01 245.355 46.9336C244.647 51.0544 242.443 53.9417 239.125 56.375C235.624 57.4048 232.304 57.6518 229 56C228.83 56.6033 228.66 57.2065 228.484 57.8281C225.841 66.5461 225.841 66.5461 222 69C218.25 69.25 218.25 69.25 215 69C214.67 67.35 214.34 65.7 214 64C218.75 62.875 218.75 62.875 221 64C221.66 59.38 222.32 54.76 223 50C221.948 51.454 221.948 51.454 220.875 52.9375C218.786 55.4548 218.087 55.9728 214.812 57C213.884 57 212.956 57 212 57C211.34 56.34 210.68 55.68 210 55C209.01 55.66 208.02 56.32 207 57C201.691 57.553 201.691 57.553 199.125 55.5C198.754 55.005 198.382 54.51 198 54C195.309 55.2201 195.309 55.2201 193 57C189.674 57.3696 187.672 57.3918 184.75 55.6875C182.022 51.4979 181.642 46.8958 181 42C178.437 42.3724 177.285 42.6654 175.578 44.6719C175.14 45.3576 174.702 46.0434 174.25 46.75C170.562 51.9772 166.041 54.9863 160 57C158.358 57.1425 156.71 57.2202 155.062 57.25C154.208 57.2758 153.353 57.3015 152.473 57.3281C149.539 56.9387 148.193 55.9335 146 54C146.33 52.35 146.66 50.7 147 49C148.65 49 150.3 49 152 49C152.33 50.65 152.66 52.3 153 54C158.89 52.6257 163.004 50.9768 166.719 46.0859C171.251 38.7079 173.919 30.75 172.25 22.125C171.244 18.7532 171.244 18.7532 168 17C163.695 17.0812 161.371 17.7575 157.75 20.125C154.293 23.7389 152.083 26.9773 151.941 32.1211C152.187 34.9734 152.642 37.4032 154.125 39.875C156.918 41.5509 159.855 42.2286 163 43C163 43.66 163 44.32 163 45C156.942 45.4177 153.81 45.1226 149 41C145.887 36.1594 146.399 30.5329 147 25C149.7 19.4007 153.461 16.0456 159.188 13.6875C165.298 12.5856 171.56 12.7381 177 16ZM208 41C205.297 43.8716 204.052 45.3099 203.75 49.3125C203.833 50.1993 203.915 51.0862 204 52C205.32 52.33 206.64 52.66 208 53C210.603 50.2882 210.995 49.1086 211.188 45.25C211.126 44.1775 211.064 43.105 211 42C210.01 41.67 209.02 41.34 208 41ZM235 41C231.618 43.2548 231.489 43.732 230.688 47.5C230.506 48.294 230.324 49.0881 230.137 49.9062C230.092 50.5972 230.046 51.2881 230 52C230.66 52.66 231.32 53.32 232 54C234.021 54.059 234.021 54.059 236 53C237.953 50.8569 237.953 50.8569 239 48C238.782 44.7644 238.782 44.7644 238 42C237.01 41.67 236.02 41.34 235 41Z" fill="#5B3E96"/>
<path d="M39 14.0001C41.625 15.7501 41.625 15.7501 43 18.0001C42.7 22.3001 42.7 22.3001 41 24.0001C39.3338 24.0407 37.6661 24.0428 36 24.0001C35 21.0001 35 21.0001 35.9375 18.8126C36.2881 18.2144 36.6387 17.6163 37 17.0001C32.5734 16.6951 32.5734 16.6951 28.625 18.5001C28.0888 18.9951 27.5525 19.4901 27 20.0001C27.1103 24.5212 28.2754 26.5876 31.4375 29.6251C32.3637 30.4488 32.3637 30.4488 33.3086 31.2891C36.7165 34.7364 37.3576 38.2889 38 43.0001C38.7219 42.1751 39.4438 41.3501 40.1875 40.5001C43 38.0001 43 38.0001 45.8125 37.6876C46.5344 37.7907 47.2563 37.8938 48 38.0001C48.66 39.3201 49.32 40.6401 50 42.0001C51.0519 41.0101 51.0519 41.0101 52.125 40.0001C55.4346 37.6977 57.0623 37.6338 61 38.0001C61.6246 41.4352 62 44.4907 62 48.0001C62.99 48.4951 62.99 48.4951 64 49.0001C64.3713 47.9276 64.7425 46.8551 65.125 45.7501C66.8949 41.6917 68.9325 39.9187 73 38.0001C76.9005 37.3387 80.0245 37.4148 83.5 39.5001C83.995 39.9951 84.49 40.4901 85 41.0001C84.8125 43.8126 84.8125 43.8126 84 47.0001C80.6949 49.6442 77.0228 50.7839 73 52.0001C76.3771 51.4628 79.6967 50.8894 83 50.0001C82.7005 52.8952 82.1907 53.8383 79.9375 55.7501C76.1785 57.3497 73.0218 57.9082 69 57.0001C66 54.5001 66 54.5001 64 52.0001C63.2781 52.8251 62.5562 53.6501 61.8125 54.5001C59 57.0001 59 57.0001 56.25 57.3751C54 57.0001 54 57.0001 53 56.0001C53.09 53.976 53.2464 51.9546 53.4375 49.9376C53.5393 48.8328 53.6412 47.7281 53.7461 46.5899C53.8299 45.7353 53.9137 44.8806 54 44.0001C52.8737 45.4365 51.749 46.8743 50.625 48.3126C49.9985 49.1131 49.372 49.9136 48.7266 50.7383C47.4224 52.4467 46.1922 54.2118 45 56.0001C41.875 56.1876 41.875 56.1876 39 56.0001C39.66 53.0301 40.32 50.0601 41 47.0001C39.35 46.6701 37.7 46.3401 36 46.0001C35.7525 47.0829 35.7525 47.0829 35.5 48.1876C32.9296 53.007 28.0716 55.3095 23 57.0001C20.3814 57.1486 17.8068 57.2311 15.1875 57.2501C14.4882 57.2707 13.7889 57.2913 13.0684 57.3126C8.27438 57.3484 5.08811 56.4792 1 54.0001C-0.796975 52.2031 -0.3396 49.6827 -0.4375 47.2501C-0.410735 41.6227 -0.410735 41.6227 1.23438 39.129C5.50312 35.5682 9.53736 34.6887 15 34.7891C18.0388 35.1096 19.7172 35.9859 22 38.0001C23.5115 41.0888 24.3078 42.8921 23.375 46.2501C21.7277 48.3466 20.509 49.1145 18 50.0001C16.68 50.0001 15.36 50.0001 14 50.0001C14 49.0101 14 48.0201 14 47.0001C15.65 46.3401 17.3 45.6801 19 45.0001C19 44.0101 19 43.0201 19 42.0001C15.7871 40.3936 12.4741 40.3756 9 41.0001C5.99667 43.3334 5.99667 43.3334 4 46.0001C4.66 47.9801 5.32 49.9601 6 52.0001C13.0256 54.0388 18.4145 54.5812 25 51.0001C28.1626 48.2231 28.9054 46.8495 29.3711 42.668C28.9138 38.1479 27.6113 36.7939 24.5 33.5626C19.3207 27.6072 19.3207 27.6072 19.125 23.6251C20.1815 19.2479 21.4296 17.6977 25 15.0001C29.4655 12.2712 34.0784 12.7353 39 14.0001ZM75 41.0001C72.7883 43.9424 72.7883 43.9424 71 47.0001C71.99 47.3301 72.98 47.6601 74 48.0001C76.2696 46.9021 76.2696 46.9021 78 45.0001C78 43.6801 78 42.3601 78 41.0001C77.01 41.0001 76.02 41.0001 75 41.0001Z" fill="#5B3E96"/>
<path d="M287.375 38.8125C289 40 289 40 291 43C292.083 41.7625 292.083 41.7625 293.187 40.5C296 38 296 38 298.687 37.5C301 38 301 38 303 41C303.536 40.505 304.072 40.01 304.625 39.5C307.613 37.613 309.527 37.6913 313 38C314 39 314 39 314.062 41.5625C314.042 42.3669 314.021 43.1712 314 44C310.989 44.9342 310.133 45.0445 307 44C305.873 45.4365 304.749 46.8742 303.625 48.3125C302.998 49.113 302.372 49.9135 301.726 50.7383C300.422 52.4466 299.192 54.2117 298 56C294.875 56.1875 294.875 56.1875 292 56C292.66 53.03 293.32 50.06 294 47C292.68 47 291.36 47 290 47C289.907 48.1137 289.907 48.1137 289.812 49.25C288.743 52.8678 287.092 53.9384 284 56C280.394 57.2019 277.789 57.3267 274 57C271.062 55.5 271.062 55.5 269 53C268.323 48.2642 268.267 46.2035 270.75 42.125C275.6 37.5442 281.011 36.6353 287.375 38.8125ZM277.312 42.5C275.411 46.1214 275.797 48.9376 276 53C278.475 53.495 278.475 53.495 281 54C283.683 50.1982 284.517 47.6562 284 43C283.34 42.34 282.68 41.68 282 41C278.997 40.6678 278.997 40.6678 277.312 42.5Z" fill="#5B3E96"/>
<path d="M100 15C101.32 15.66 102.64 16.32 104 17C103.602 17.727 103.203 18.4541 102.793 19.2031C99.0347 26.3356 96.5964 33.1019 95 41C95.5827 40.5089 96.1653 40.0177 96.7656 39.5117C99.8704 37.4111 102.339 37.7888 106 38C106.625 41.4351 107 44.4906 107 48C107.66 48.33 108.32 48.66 109 49C108.458 52.7913 107.007 54.6611 104 57C101.312 57.3125 101.312 57.3125 99 57C98.67 56.67 98.34 56.34 98 56C98.09 53.9759 98.2464 51.9546 98.4375 49.9375C98.5393 48.8328 98.6412 47.728 98.7461 46.5898C98.8299 45.7352 98.9137 44.8805 99 44C98.3851 44.9223 98.3851 44.9223 97.7578 45.8633C95.5052 49.2422 93.2526 52.6211 91 56C87.875 56.1875 87.875 56.1875 85 56C85.5469 42.848 88.1984 26.652 97.8125 16.875C98.5344 16.2563 99.2563 15.6375 100 15Z" fill="#5B3E96"/>
<path d="M120 37.875C121.052 37.8711 121.052 37.8711 122.125 37.8672C124 38 124 38 126 39C127.98 38.67 129.96 38.34 132 38C131.34 41.96 130.68 45.92 130 50C130.99 49.34 131.98 48.68 133 48C133.812 49.6875 133.812 49.6875 134 52C131.637 55.0576 130.22 56.8298 126.312 57.375C124 57 124 57 122 56C121.34 56.33 120.68 56.66 120 57C116.768 57.281 114.699 57.3914 111.836 55.7891C110 54 110 54 109.469 51.6953C109.522 47.3446 109.557 44.7233 111.875 40.9375C114.729 38.3351 116.236 37.8612 120 37.875ZM121 41C118.257 43.3009 117.102 44.6086 116.188 48.125C115.761 50.9424 115.761 50.9424 117 53C119.445 52.8117 119.445 52.8117 122 52C124.139 49.1484 124.461 46.5002 124 43C123.01 42.34 122.02 41.68 121 41Z" fill="#5B3E96"/>
<path d="M263 38.0001C266.062 40.1251 266.062 40.1251 268 43.0001C268.585 46.5071 268.243 48.4205 266.875 51.6876C264.119 55.0864 261.329 56.5845 257.008 57.3555C253.114 57.6274 251.186 57.1317 248 54.8751C246 52.0001 246 52.0001 245.438 49.0626C246.147 45.2021 247.524 43.0267 250 40.0001C254.165 37.4417 258.236 37.1779 263 38.0001ZM254.25 42.5626C252.557 45.8632 252.661 48.3429 253 52.0001C253.66 52.6601 254.32 53.3201 255 54.0001C257.048 53.905 257.048 53.905 259 53.0001C261.446 49.3314 261.236 47.3281 261 43.0001C260.67 42.3401 260.34 41.6801 260 41.0001C256.106 40.556 256.106 40.556 254.25 42.5626Z" fill="#5B3E96"/>
</g>
<defs>
<clipPath id="clip0_149_11">
<rect width="314" height="73" fill="white"/>
</clipPath>
</defs>
</svg>
