<svg width="352" height="72" viewBox="0 0 352 72" fill="none" xmlns="http://www.w3.org/2000/svg">
<g clip-path="url(#clip0_149_2)">
<path d="M29 11C31.475 11.99 31.475 11.99 34 13C33.6017 14.1021 33.2034 15.2043 32.793 16.3398C28.6748 28.0235 24.563 40.4481 25 53C28.8914 51.524 30.1592 49.6817 32 46C33.0707 43.3527 34.042 40.6917 35 38C37.4375 38.375 37.4375 38.375 40 39C40.495 39.99 40.495 39.99 41 41C42.0519 40.01 42.0519 40.01 43.125 39C46.4811 36.6654 47.999 36.3042 52 37C53.9375 38.5625 53.9375 38.5625 55 41C54.7437 45.6132 53.5821 49.6757 52 54C55.7618 52.5451 56.9133 50.8401 58.75 47.3125C61.9509 41.6783 66.1235 36.9383 72 34C78.2362 33.5465 78.2362 33.5465 81 35.1875C82.4306 37.7804 81.7085 39.1499 81 42C80.3399 44.1129 79.6513 46.2171 78.9375 48.3125C78.5753 49.3811 78.2131 50.4498 77.8399 51.5508C77.4242 52.7631 77.4242 52.7631 77 54C84.0378 49.9469 86.4567 45.5027 89 38C91.4375 38.375 91.4375 38.375 94 39C94.495 39.99 94.495 39.99 95 41C95.8663 40.34 96.7325 39.68 97.625 39C101.226 36.8662 102.906 36.3487 107 37C109.189 40.2832 109.207 40.7077 108.688 44.375C108.579 45.1652 108.471 45.9554 108.359 46.7695C107.969 49.1952 107.541 51.603 107 54C111.217 51.0754 112.916 48.666 114.688 43.875C116.828 38.1722 116.828 38.1722 119 36C121.625 36.375 121.625 36.375 124 37C123.795 37.5917 123.59 38.1834 123.379 38.793C122 42.8366 120.683 46.7686 120 51C124.599 48.5143 127.233 46.3546 128.875 41.3125C129.246 40.5494 129.618 39.7862 130 39C132.625 38.1875 132.625 38.1875 135 38C134.449 43.2388 133.571 47.9735 132 53C134.564 49.9425 136.794 46.7947 138.938 43.4375C141.682 39.2619 144.476 36.2621 149 34C155.471 33.6471 155.471 33.6471 159 36C159.723 40.0979 158.234 43.3268 156.734 47.0625C155.871 49.3401 155.376 51.5962 155 54C159.32 51.4081 161.488 49.3056 164 45C164.99 45 165.98 45 167 45C165.916 50.0574 163.882 52.7246 159.941 55.8672C156.871 57.6588 154.443 57.5296 151 57C150.01 56.34 149.02 55.68 148 55C147.196 55.7425 147.196 55.7425 146.375 56.5C143.333 58.4211 141.54 58.4519 138 58C136.125 56.5 136.125 56.5 135 55C130.684 57.1654 128.993 59.1949 126.875 63.5C123.644 69.997 123.644 69.997 121 72C117.375 72.25 117.375 72.25 114 72C113 71 113 71 112.5 68.3125C113.148 64.0206 114.789 62.9116 118.078 60.2969C119.99 59.007 121.914 57.9783 124 57C124 56.01 124 55.02 124 54C122.907 54.2062 121.814 54.4125 120.688 54.625C117 55 117 55 114 53C113.649 53.4744 113.299 53.9487 112.938 54.4375C110.07 56.7501 107.623 56.8706 104 57C102 56 102 56 101 54C101.25 50.625 101.25 50.625 102 47C102.278 45.5459 102.278 45.5459 102.563 44.0625C102.707 43.3819 102.851 42.7013 103 42C97.7446 43.3911 95.0966 46.7684 92 51C91.5257 51.9694 91.0513 52.9388 90.5625 53.9375C89.7891 54.9584 89.7891 54.9584 89 56C85.4375 56.25 85.4375 56.25 82 56C81.01 56.495 81.01 56.495 80 57C76.5 57.1875 76.5 57.1875 73 57C72.34 56.34 71.68 55.68 71 55C70.4844 55.495 69.9688 55.99 69.4375 56.5C66.1932 58.4965 63.7379 58.2156 60 58C59.67 57.01 59.34 56.02 59 55C58.2988 55.3506 57.5975 55.7012 56.875 56.0625C53.4761 57.1708 51.4341 56.8585 48 56C47.67 55.67 47.34 55.34 47 55C47.0901 52.9759 47.2464 50.9546 47.4375 48.9375C47.5394 47.8328 47.6412 46.728 47.7461 45.5898C47.8299 44.7352 47.9137 43.8805 48 43C44.6175 43.2858 43.3214 43.6413 41.0157 46.2148C40.433 47.1133 39.8503 48.0118 39.25 48.9375C38.6571 49.8334 38.0641 50.7293 37.4532 51.6523C36.0097 53.9053 36.0097 53.9053 35 56C34.0307 55.9794 33.0613 55.9588 32.0625 55.9375C29.1254 55.6438 29.1254 55.6438 28 57C24.5625 57.1875 24.5625 57.1875 21 57C19 55 19 55 18.8047 51.5234C18.818 50.1405 18.8419 48.7576 18.875 47.375C18.8841 46.6686 18.8931 45.9622 18.9024 45.2344C18.926 43.4894 18.9618 41.7447 19 40C16.69 40 14.38 40 12 40C8.70003 46.93 5.40003 53.86 2.00003 61C1.34003 61 0.680032 61 3.15309e-05 61C-0.934671 52.0511 1.13679 46.483 6.00003 39C4.02003 38.67 2.04003 38.34 3.15309e-05 38C3.15309e-05 37.01 3.15309e-05 36.02 3.15309e-05 35C3.30003 35 6.60003 35 10 35C10.2218 34.3194 10.4435 33.6388 10.6719 32.9375C12.3753 29.1701 14.6839 26.2198 17.25 23C17.9481 22.0951 17.9481 22.0951 18.6602 21.1719C21.7723 17.2281 25.0403 14.0928 29 11ZM24 20C18.4407 27.668 18.4407 27.668 14 36C15.98 36.33 17.96 36.66 20 37C20.8633 34.5445 21.7159 32.0862 22.5625 29.625C22.8094 28.9263 23.0562 28.2277 23.3106 27.5078C23.9309 25.6904 24.4711 23.8461 25 22C24.67 21.34 24.34 20.68 24 20ZM71.1485 38.5742C66.6633 43.9189 63.5859 47.7533 64 55C70.0044 52.4135 73.7408 47.125 77 41.625C77.33 40.7588 77.66 39.8925 78 39C77.67 38.34 77.34 37.68 77 37C73.1029 36.5682 73.1029 36.5682 71.1485 38.5742ZM145.363 41.9219C143.216 45.1956 142.07 48.2249 141 52C141.33 52.99 141.66 53.98 142 55C145.946 52.8856 148.506 50.6032 151.313 47.125C152.01 46.282 152.707 45.4389 153.426 44.5703C155.162 41.7355 155.345 40.2585 155 37C150.027 35.9761 148.231 38.2757 145.363 41.9219ZM120 62C116.975 65.0556 116.975 65.0556 116 69C118.993 67.9025 119.846 67.3232 121.25 64.375C121.498 63.5913 121.745 62.8075 122 62C121.34 62 120.68 62 120 62Z" fill="#5B3E96"/>
<path d="M230.75 12.2501C231.492 12.4976 232.235 12.7451 233 13.0001C234.077 20.8976 230.046 27.6671 225.594 34.0001C223.56 36.4801 221.328 38.7945 219 41.0001C219.33 41.3301 219.66 41.6601 220 42.0001C220.68 41.1751 221.361 40.3501 222.062 39.5001C225 37.0001 225 37.0001 228.687 36.5001C229.78 36.6651 230.874 36.8301 232 37.0001C234.363 40.5455 234.321 41.8217 234 46.0001C233.444 48.3858 232.748 50.6631 232 53.0001C235.753 51.5281 237.177 49.6132 239.312 46.2501C242.716 41.1816 246.462 36.7689 252 34.0001C258.236 33.5465 258.236 33.5465 261 35.1876C262.43 37.7804 261.708 39.15 261 42.0001C260.34 44.113 259.651 46.2172 258.937 48.3126C258.575 49.3812 258.213 50.4498 257.84 51.5509C257.562 52.3591 257.285 53.1673 257 54.0001C263.389 50.5829 266.636 45.378 269.312 38.7501C269.956 36.1758 270.539 33.6133 271 31.0001C272.32 30.6701 273.64 30.3401 275 30.0001C275.247 30.9076 275.495 31.8151 275.75 32.7501C276.731 36.0706 276.731 36.0706 279.187 37.8751C281 40.0001 281 40.0001 280.875 43.8751C280.241 47.3666 279.247 50.6751 278 54.0001C283.599 50.516 286.552 48.1541 288.187 41.7501C288.455 40.5126 288.723 39.2751 289 38.0001C290.98 38.0001 292.96 38.0001 295 38.0001C295.495 38.9901 295.495 38.9901 296 40.0001C296.68 39.1751 297.361 38.3501 298.062 37.5001C301 35.0001 301 35.0001 304.812 34.6876C305.864 34.7907 306.916 34.8938 308 35.0001C308.99 37.9701 308.99 37.9701 310 41.0001C310.722 40.4845 311.443 39.9688 312.187 39.4376C315.419 37.7857 316.616 37.9366 320 39.0001C321.598 43.9536 320.283 48.1329 319 53.0001C323.03 51.5212 324.059 49.4781 325.875 45.6876C328.873 39.8957 331.607 36.1309 338 34.0001C341.5 33.6876 341.5 33.6876 345 34.0001C346.793 35.7149 346.793 35.7149 348 38.0001C347.707 40.3673 347.707 40.3673 346.812 42.8751C346.513 43.7465 346.214 44.6179 345.906 45.5157C345.607 46.3356 345.308 47.1554 345 48.0001C344.608 49.1963 344.216 50.3926 343.812 51.6251C343.41 52.8007 343.41 52.8007 343 54.0001C346.533 52.0369 349.245 49.9594 352 47.0001C352.375 49.1876 352.375 49.1876 352 52.0001C348.57 55.7642 347.255 56.8989 342.125 57.3126C341.094 57.2095 340.062 57.1063 339 57.0001C338.67 56.0101 338.34 55.0201 338 54.0001C337.319 54.6601 336.638 55.3201 335.937 56.0001C332.306 58.4727 330.313 58.4793 326 58.0001C324.515 57.0101 324.515 57.0101 323 56.0001C322.67 56.3301 322.34 56.6601 322 57.0001C319.329 57.1412 316.675 57.0426 314 57.0001C312.582 54.1645 313.137 52.0092 313.437 48.8751C313.539 47.7794 313.641 46.6837 313.746 45.5548C313.83 44.7117 313.913 43.8687 314 43.0001C309.408 47.0674 306.783 51.5639 304 57.0001C302.35 56.6701 300.7 56.3401 299 56.0001C300.32 50.7201 301.64 45.4401 303 40.0001C298.225 42.865 296.983 44.0009 294.25 48.5001C293.657 49.4591 293.064 50.4182 292.453 51.4063C290.899 53.9898 290.899 53.9898 290 57.0001C289.216 56.8351 288.432 56.6701 287.625 56.5001C284.181 55.8209 284.181 55.8209 281 57.0001C277.5 57.1876 277.5 57.1876 274 57.0001C272 55.0001 272 55.0001 271.988 53.1251C272.095 52.4238 272.202 51.7226 272.312 51.0001C272.412 50.2988 272.511 49.5976 272.613 48.8751C273 47.0001 273 47.0001 274 45.0001C274.04 43.0005 274.043 40.9996 274 39.0001C273.238 40.4464 273.238 40.4464 272.461 41.922C271.766 43.1984 271.071 44.4744 270.375 45.7501C270.043 46.3843 269.712 47.0185 269.371 47.672C266.938 52.0784 264.562 54.5805 260 57.0001C256.25 57.3751 256.25 57.3751 253 57.0001C252.34 56.3401 251.68 55.6801 251 55.0001C250.484 55.4951 249.969 55.9901 249.437 56.5001C246.193 58.4966 243.738 58.2157 240 58.0001C239.67 57.0101 239.34 56.0201 239 55.0001C238.299 55.3301 237.597 55.6601 236.875 56.0001C233.692 57.1071 231.346 57.2976 228 57.0001C227.34 56.3401 226.68 55.6801 226 55.0001C226.023 51.961 226.023 51.961 226.375 48.3751C226.486 47.1866 226.596 45.9981 226.711 44.7735C226.806 43.8583 226.901 42.9431 227 42.0001C223.688 42.7232 223.688 42.7232 222.316 46.1251C221.419 48.0687 220.552 50.0235 219.693 51.9845C217.456 56.8077 217.456 56.8077 214.777 57.9376C214.191 57.9582 213.604 57.9788 213 58.0001C209.775 51.5508 212.012 43.0425 214.062 36.5626C222.822 11.5294 222.822 11.5294 230.75 12.2501ZM227 21.0001C228 23.0001 228 23.0001 228 23.0001L227 21.0001ZM226 23.0001C224.391 25.3762 224.391 25.3762 223 28.0001C223.33 28.6601 223.66 29.3201 224 30.0001C225.609 27.624 225.609 27.624 227 25.0001C226.67 24.3401 226.34 23.6801 226 23.0001ZM222 30.0001C223 32.0001 223 32.0001 223 32.0001L222 30.0001ZM251.148 38.5743C246.663 43.919 243.586 47.7534 244 55.0001C250.004 52.4136 253.74 47.1251 257 41.6251C257.33 40.7588 257.66 39.8926 258 39.0001C257.67 38.3401 257.34 37.6801 257 37.0001C253.103 36.5683 253.103 36.5683 251.148 38.5743ZM336.5 39.0626C332.945 43.2389 330.161 46.7829 329.75 52.4376C329.832 53.2832 329.915 54.1288 330 55.0001C333.36 53.5715 335.277 51.8395 337.625 49.0626C338.215 48.3729 338.806 47.6833 339.414 46.9727C342.275 43.4145 343.245 41.5398 343 37.0001C338.974 36.5758 338.974 36.5758 336.5 39.0626Z" fill="#5B3E96"/>
<path d="M208 12C210 14 210 14 210.375 17.5625C210.283 22.5839 208.277 26.6078 206 31C204.68 31 203.36 31 202 31C202.515 25.1472 203.453 19.6703 205 14C199.488 15.1888 196.768 16.5673 193 21C191.579 23.8409 191.685 25.8548 192 29C194.724 32.7906 198.961 35.0066 202.879 37.4375C205.815 39.6009 207.679 41.5284 208.469 45.1485C208.529 49.4248 208.235 51.6025 206 55.375C200.928 59.8125 196.565 61.3395 189.812 60.9375C185.551 60.3475 183.009 59.2037 180 56C178.266 52.533 178.396 48.7822 179 45C181.25 42.375 181.25 42.375 184 41C186.312 41.25 186.312 41.25 188 42C187.67 42.5157 187.34 43.0313 187 43.5625C185.642 46.8722 185.678 49.4564 186 53C187.584 55.1565 188.473 55.901 191.121 56.3985C194.588 56.3634 197.333 56.2765 200.562 54.9375C202.273 52.9387 202.273 52.9387 202.562 49.625C201.84 44.9676 200.668 43.9194 197 41C194.719 39.4659 192.426 37.9693 190.086 36.5274C187.808 34.8597 186.431 33.4333 185 31C184.441 26.2763 185.62 22.0452 188.25 18.125C193.853 11.1488 199.701 10.5276 208 12Z" fill="#5B3E96"/>
</g>
<defs>
<clipPath id="clip0_149_2">
<rect width="352" height="72" fill="white"/>
</clipPath>
</defs>
</svg>
