<svg width="337" height="82" viewBox="0 0 337 82" fill="none" xmlns="http://www.w3.org/2000/svg">
<g clip-path="url(#clip0_149_6)">
<path d="M291.75 10.3124C292.864 10.6527 292.864 10.6527 294 10.9999C294.838 16.4443 292.899 19.3441 289.867 23.6093C286.767 27.5785 283.432 31.3158 280 34.9999C281.258 34.6286 282.516 34.2574 283.813 33.8749C285.957 33.2421 285.957 33.2421 288 32.9999C288.99 33.6599 289.98 34.3199 291 34.9999C291.577 39.6315 290.518 42.7374 288.5 46.8749C288.036 47.8417 287.572 48.8085 287.094 49.8046C286.733 50.529 286.372 51.2535 286 51.9999C286.66 51.9999 287.32 51.9999 288 51.9999C292.743 46.3892 295.566 39.859 298 32.9999C296.68 32.9999 295.36 32.9999 294 32.9999C294.495 31.5149 294.495 31.5149 295 29.9999C296.98 29.9999 298.96 29.9999 301 29.9999C301.248 29.278 301.495 28.5561 301.75 27.8124C303.11 24.7528 304.829 22.5325 307 19.9999C307.99 20.3299 308.98 20.6599 310 20.9999C308.941 24.403 307.991 27.0134 306 29.9999C308.97 29.9999 311.94 29.9999 315 29.9999C314.505 31.4849 314.505 31.4849 314 32.9999C310.7 33.3299 307.4 33.6599 304 33.9999C303.18 36.0387 302.37 38.081 301.563 40.1249C301.11 41.2618 300.658 42.3988 300.191 43.5702C299.09 46.742 298.439 49.6793 298 52.9999C301.321 52.6996 302.71 52.2917 305.098 49.8905C305.746 49.0191 306.394 48.1477 307.063 47.2499C307.714 46.3888 308.364 45.5277 309.035 44.6405C309.684 43.7691 310.332 42.8977 311 41.9999C314.068 37.9839 316.169 35.7651 321 33.9999C324.871 33.5959 328.276 33.7586 332 34.9999C332.99 34.9999 333.98 34.9999 335 34.9999C333.431 39.0523 331.644 42.9793 329.805 46.9139C328.82 49.0938 328.82 49.0938 329 51.9999C332.088 51.3529 332.088 51.3529 333 49.1249C333.33 48.4236 333.66 47.7224 334 46.9999C335.625 45.2499 335.625 45.2499 337 43.9999C336.764 48.0844 336.59 50.342 333.813 53.4374C330.529 55.2614 328.702 55.315 325 54.9999C321.224 54.7017 321.224 54.7017 319 55.9999C316.941 56.203 316.941 56.203 314.563 56.2499C313.78 56.2757 312.998 56.3014 312.191 56.328C309.521 55.9281 308.68 55.0529 307 52.9999C306.484 53.4949 305.969 53.9899 305.438 54.4999C302.193 56.4964 299.738 56.2155 296 55.9999C295.34 54.6799 294.68 53.3599 294 51.9999C293.319 52.6599 292.639 53.3199 291.938 53.9999C288.34 56.449 286.267 56.4102 282 55.9999C281 54.9999 281 54.9999 280.563 52.1874C280.575 46.2639 284.218 41.0415 287 35.9999C278.924 40.6435 273.2 47.7742 269 55.9999C267.68 55.9999 266.36 55.9999 265 55.9999C265 55.3399 265 54.6799 265 53.9999C264.175 54.4949 263.35 54.9899 262.5 55.4999C258.124 57.3754 255.726 57.4573 251 56.9999C248.793 55.7733 248.793 55.7733 247 53.9999C245.974 49.9509 246.242 45.7778 247.883 41.9296C250.781 37.4964 254.133 35.0139 259 32.9999C265.305 33.305 265.305 33.305 267 34.9999C266.915 39.4287 266.476 41.4641 263.5 44.8124C259.746 47.5957 255.545 48.3232 251 48.9999C251.66 50.3199 252.32 51.6399 253 52.9999C257.673 53.3259 260.293 52.9266 264 49.9999C265.36 48.018 266.698 46.0204 268 43.9999C268.66 43.9999 269.32 43.9999 270 43.9999C270.089 43.3566 270.178 42.7134 270.27 42.0507C272.342 33.3951 280.47 9.03057 291.75 10.3124ZM290 12.9999C287.05 16.4585 284.773 19.8001 283 23.9999C283.33 24.6599 283.66 25.3199 284 25.9999C285.2 24.405 286.385 22.7986 287.563 21.1874C288.224 20.2941 288.885 19.4007 289.566 18.4804C290.04 17.6618 290.513 16.8432 291 15.9999C290.67 15.0099 290.34 14.0199 290 12.9999ZM255 39.9999C253.19 43.1165 253.19 43.1165 252 45.9999C254.869 45.9155 256.557 45.413 258.668 43.4452C261.875 40.1666 261.875 40.1667 263 35.9999C258.98 35.9999 257.883 37.2613 255 39.9999ZM318 39.9999C315.257 43.4721 313.151 46.5489 312.688 50.9999C312.791 51.6599 312.894 52.3199 313 52.9999C314.678 53.9661 314.678 53.9661 317 53.9999C322.689 50.4131 326.231 45.0883 329 38.9999C328.67 38.3399 328.34 37.6799 328 36.9999C323.685 36.63 321.392 37.286 318 39.9999Z" fill="#5B3E96"/>
<path d="M249 12C249.99 12.33 250.98 12.66 252 13C251.39 14.7277 250.78 16.4554 250.17 18.1831C249.635 19.699 249.1 21.215 248.565 22.731C247.145 26.7571 245.723 30.7831 244.301 34.8086C244.03 35.5744 243.759 36.3402 243.481 37.1292C242.96 38.6037 242.439 40.0781 241.917 41.5525C239.571 48.0965 239.571 48.0965 238.875 54.9375C238.872 55.7921 238.87 56.6468 238.867 57.5273C238.99 59.8268 239.356 61.7964 240 64C241.416 64.0272 242.833 64.0465 244.25 64.0625C245.433 64.0799 245.433 64.0799 246.64 64.0977C248.907 64.0039 250.829 63.6324 253 63C253.33 63.99 253.66 64.98 254 66C248.85 68.2448 244.368 68.5423 239 67C236.251 64.8813 234.568 63.3109 233.187 60.125C232.668 54.2405 233.232 49.2514 234.812 43.5625C235.149 42.3263 235.485 41.0901 235.832 39.8164C237.062 35.7961 238.485 31.9205 240 28C233.427 36.0188 227.114 43.9307 221.719 52.8047C220 55 220 55 217.781 55.8203C217.193 55.8796 216.605 55.9389 216 56C215.843 50.9368 216.372 46.496 217.5 41.5625C217.778 40.3263 218.057 39.0901 218.344 37.8164C218.56 36.887 218.777 35.9576 219 35C218.382 35.9784 217.765 36.9568 217.129 37.9648C203.749 58.8165 203.749 58.8165 194 62C187.149 63.4606 182.269 63.1896 176 60C173.671 58.1076 173.134 56.8905 172.691 53.9531C172.467 49.8966 172.835 47.3554 174.562 43.625C178.235 39.6696 181.414 38.2741 186.652 37.7188C192.56 37.5243 196.787 38.2201 202 41C202 41.99 202 42.98 202 44C201.371 43.7718 200.742 43.5437 200.094 43.3086C194.224 41.3375 190.037 40.3627 184 42C181.046 44.031 179.323 45.4033 178.594 49.0039C178.465 51.9045 178.657 54.3366 180 56.9375C183.908 59.0137 187.777 59.6104 192.019 58.4453C204.802 52.7473 211.705 38.9219 218.754 27.5781C219.203 26.855 219.652 26.1318 220.116 25.3867C220.979 23.9915 221.837 22.5932 222.689 21.1914C224.57 18.1269 226.393 15.4712 229 13C229.99 13.33 230.98 13.66 232 14C231.788 14.7113 231.576 15.4226 231.357 16.1555C230.401 19.3733 229.45 22.5928 228.5 25.8125C228.166 26.9321 227.832 28.0516 227.488 29.2051C227.014 30.8148 227.014 30.8148 226.531 32.457C226.238 33.4468 225.945 34.4365 225.642 35.4563C224.877 38.0475 224.877 38.0475 225 41C225.765 39.9443 225.765 39.9443 226.547 38.8672C233.447 29.4957 240.694 20.1774 249 12Z" fill="#5B3E96"/>
<path d="M143 33C144.32 33.33 145.64 33.66 147 34C146.662 34.7013 146.325 35.4025 145.977 36.125C143.348 41.7167 141.256 46.9482 140 53C146.491 49.6347 146.491 49.6347 151 44C151.227 41.3079 151.087 38.7088 151 36C151.66 35.01 152.32 34.02 153 33C154.32 33.33 155.64 33.66 157 34C157.422 40.1214 157.128 43.1503 153 48C149.538 51.5657 146.461 54.4663 141.75 56.1875C139 56 139 56 136.625 54.0625C136.089 53.3819 135.553 52.7013 135 52C134.464 52.495 133.928 52.99 133.375 53.5C130.363 55.4026 128.512 55.2195 125 55C121.224 54.7019 121.224 54.7019 119 56C117.46 56.0695 115.917 56.0845 114.375 56.0625C113.149 56.049 113.149 56.049 111.899 56.0352C111.272 56.0236 110.646 56.012 110 56C109.505 54.515 109.505 54.515 109 53C108.154 53.6806 107.309 54.3612 106.438 55.0625C102.33 57.3776 100.49 57.0776 96.0001 56C95.7067 50.3272 95.9945 47.0093 99.0001 42C98.5051 41.505 98.5051 41.505 98.0001 41C97.5412 41.7593 97.0823 42.5185 96.6095 43.3008C95.9959 44.2946 95.3823 45.2885 94.7501 46.3125C94.1468 47.2986 93.5435 48.2848 92.922 49.3008C91.0982 51.8622 89.6885 53.4085 87.0001 55C84.0001 55.1875 84.0001 55.1875 81.0001 55C77.2237 54.7019 77.2237 54.7019 75.0001 56C72.9063 56.2031 72.9063 56.2031 70.5001 56.25C69.706 56.2758 68.912 56.3016 68.0938 56.3281C67.4029 56.2198 66.712 56.1116 66.0001 56C63.5831 52.3746 63.3652 51.2851 64.0001 47C67.0447 40.759 70.5205 36.5695 77.0001 34C80.8903 33.5119 84.2521 33.7507 88.0001 35C88.9901 35 89.9801 35 91.0001 35C89.4314 39.0524 87.6445 42.9794 85.8048 46.9141C84.8201 49.0939 84.8201 49.0939 85.0001 52C88.0368 51.3574 88.0368 51.3574 88.9415 49.3594C89.2908 48.5808 89.6402 47.8022 90.0001 47C91.29 44.7324 92.5976 42.4873 93.9376 40.25C94.285 39.648 94.6324 39.046 94.9903 38.4258C96.0274 36.7031 96.0274 36.7031 98.0001 34C98.9901 34 99.9801 34 101 34C102.845 36.626 103.984 38.9513 105 42C104.004 44.918 104.004 44.918 102.563 48.1875C102.089 49.2742 101.616 50.3609 101.129 51.4805C100.756 52.3119 100.384 53.1434 100 54C104.29 52.5026 105.955 49.3556 108.25 45.6875C111.695 40.4857 114.887 36.0338 121 34C124.914 33.4298 128.223 33.7408 132 35C132.99 35 133.98 35 135 35C133.431 39.0524 131.645 42.9794 129.805 46.9141C128.82 49.0939 128.82 49.0939 129 52C132.057 51.3508 132.057 51.3508 133.004 49.25C133.333 48.5075 133.661 47.765 134 47C134.964 45.3245 135.944 43.6582 136.938 42C137.442 41.1544 137.946 40.3087 138.465 39.4375C139.877 37.1956 141.377 35.0926 143 33ZM74.0001 40C71.2569 43.4722 69.1512 46.549 68.6876 51C68.7907 51.66 68.8938 52.32 69.0001 53C70.6784 53.9662 70.6784 53.9662 73.0001 54C78.6895 50.4132 82.2307 45.0884 85.0001 39C84.6701 38.34 84.3401 37.68 84.0001 37C79.685 36.6301 77.3925 37.2861 74.0001 40ZM118 40C115.257 43.4722 113.151 46.549 112.688 51C112.791 51.66 112.894 52.32 113 53C114.678 53.9662 114.678 53.9662 117 54C122.689 50.4132 126.231 45.0884 129 39C128.67 38.34 128.34 37.68 128 37C123.685 36.6301 121.392 37.2861 118 40Z" fill="#5B3E96"/>
<path d="M71 13C73 15 73 15 73.2825 17.803C72.9764 21.2675 72.1959 23.1528 70.4805 26.1523C69.9526 27.094 69.4247 28.0357 68.8809 29.0059C68.0426 30.457 68.0426 30.457 67.1875 31.9375C62.1682 40.7602 62.1682 40.7602 58 50C59.32 50.33 60.64 50.66 62 51C62 51.66 62 52.32 62 53C59.03 53.495 59.03 53.495 56 54C55.67 54.99 55.34 55.98 55 57C53.35 56.67 51.7 56.34 50 56C50 54.68 50 53.36 50 52C49.1686 51.7229 48.3371 51.4457 47.4805 51.1602C43.3203 49.7734 39.1602 48.3867 35 47C34.4547 47.5427 33.9095 48.0854 33.3477 48.6445C27.5263 54.1674 22.6184 57.8127 14.4219 58.0859C8.40715 57.7438 4.32183 56.3218 0 52C-0.204623 49.7141 -0.314007 47.4193 -0.375 45.125C-0.423984 43.8695 -0.472969 42.6139 -0.523438 41.3203C0 38 0 38 2.21484 36.0781C7.70605 33.9525 12.9761 34.2272 18.4375 36.3125C20.6039 37.7391 22.3185 39.0382 24 41C23.67 41.99 23.34 42.98 23 44C22.34 44 21.68 44 21 44C21 43.34 21 42.68 21 42C16.59 39.7239 11.8774 39.1506 7 40C5.11842 41.5352 4.15115 42.6761 3.125 44.875C2.9394 48.0303 4.11389 49.5285 6 52C10.2247 54.5634 14.1817 54.7833 19 54C23.715 51.9201 27.5806 48.8468 31 45C30.5063 44.5037 30.0126 44.0074 29.5039 43.4961C26.3544 40.1564 24.232 37.7605 22.875 33.3125C23.0167 29.5585 23.6693 27.9133 26 25C29.7018 22.5322 32.7066 22.193 37 23C39.6524 24.4309 41.6648 26.054 44 28C47.0677 26.6433 49.0366 25.1373 51.3125 22.6875C57.0535 16.7736 62.3869 12.4502 71 13ZM53.4373 25.3562C51.27 27.551 49.1268 29.7659 47 32C48.1489 35.6122 49.3833 39.0078 51.125 42.375C51.6548 43.4075 51.6548 43.4075 52.1953 44.4609C52.4609 44.9688 52.7264 45.4767 53 46C55.8088 42.5477 57.7861 38.7504 59.8125 34.8125C62.5699 29.5096 65.4829 24.5372 69.0664 19.7344C69.3745 19.162 69.6826 18.5897 70 18C69.67 17.01 69.34 16.02 69 15C63.0887 15 57.4156 21.4174 53.4373 25.3562ZM29.125 28.125C27.4073 30.9879 27.4842 32.7117 28 36C29.4825 38.27 31.1153 40.0211 33 42C36.4528 40.8491 37.3808 39.6794 39.6875 36.9375C40.3101 36.204 40.9327 35.4706 41.5742 34.7148C42.0447 34.149 42.5152 33.5831 43 33C40.454 29.4762 40.454 29.4762 37 27C32.8694 26.6239 32.8694 26.6239 29.125 28.125ZM44 35C42.7835 36.3069 41.6012 37.6459 40.4375 39C39.4765 40.1138 39.4765 40.1138 38.4961 41.25C38.0024 41.8275 37.5087 42.405 37 43C38.463 45.926 40.4102 46.0971 43.4375 47.1875C44.4262 47.5523 45.4149 47.9171 46.4336 48.293C48.9625 49.2974 48.9625 49.2974 51 48C49.02 43.71 47.04 39.42 45 35C44.67 35 44.34 35 44 35Z" fill="#5B3E96"/>
</g>
<defs>
<clipPath id="clip0_149_6">
<rect width="337" height="82" fill="white"/>
</clipPath>
</defs>
</svg>
