<svg width="512" height="512" viewBox="0 0 512 512" fill="none" xmlns="http://www.w3.org/2000/svg">
<path d="M264.188 40.5C271.888 44.9517 275.212 55.1416 279.008 62.7852C279.857 64.4842 279.857 64.4842 280.723 66.2176C281.92 68.6146 283.116 71.0123 284.309 73.4114C286.094 77.0015 287.887 80.5877 289.68 84.1738C295.561 95.9559 301.355 107.773 307.006 119.668C312.367 130.924 318.004 142.043 323.632 153.168C325.022 155.919 326.408 158.672 327.793 161.426C328.43 162.68 328.43 162.68 329.08 163.96C329.465 164.726 329.85 165.493 330.247 166.282C330.587 166.955 330.927 167.627 331.277 168.32C332 170 332 170 332 172C333.084 172.144 334.168 172.288 335.285 172.436C363.774 176.234 392.234 180.255 420.676 184.383C425.679 185.109 430.683 185.83 435.688 186.54C440.479 187.22 445.268 187.914 450.055 188.617C451.839 188.877 453.624 189.133 455.41 189.383C457.883 189.73 460.353 190.095 462.823 190.464C463.537 190.56 464.251 190.656 464.987 190.755C471.543 191.769 477.235 193.782 481.438 199.062C483.858 203.614 484.421 206.861 484 212C481.027 219.609 476.059 224.444 470.25 230.062C469.381 230.922 468.512 231.781 467.617 232.666C463.884 236.334 460.117 239.913 456.155 243.334C452.093 246.87 448.282 250.606 444.5 254.438C443.48 255.463 443.48 255.463 442.439 256.51C440.29 258.671 438.145 260.835 436 263C433.17 265.857 430.336 268.711 427.5 271.562C426.866 272.204 426.233 272.846 425.58 273.508C421.847 277.261 417.995 280.807 413.989 284.267C408.521 289.031 403.305 294.069 398.097 299.114C396.653 300.5 395.197 301.874 393.73 303.235C391.589 305.223 389.493 307.252 387.402 309.293C386.744 309.887 386.086 310.481 385.408 311.094C382.737 313.775 381.054 315.704 380.893 319.59C380.997 320.544 381.102 321.499 381.21 322.482C381.325 323.547 381.441 324.611 381.561 325.709C382.262 330.96 383.111 336.172 384.041 341.387C384.246 342.561 384.451 343.735 384.662 344.945C385.219 348.127 385.78 351.309 386.342 354.49C386.933 357.842 387.516 361.195 388.1 364.548C389.958 375.217 391.827 385.884 393.703 396.55C394.94 403.576 396.17 410.602 397.391 417.631C397.969 420.958 398.551 424.285 399.141 427.61C399.799 431.319 400.445 435.031 401.088 438.742C401.283 439.825 401.478 440.907 401.678 442.022C404.67 459.506 404.67 459.506 401.375 465.938C397.989 470.303 395.007 472.432 389.688 473.938C381.825 474.071 374.68 470.072 367.812 466.562C366.945 466.124 366.078 465.686 365.184 465.234C358.131 461.643 351.196 457.852 344.269 454.026C335.435 449.175 326.473 444.586 317.5 440C307.647 434.962 297.821 429.898 288.125 424.562C287.278 424.098 286.43 423.634 285.557 423.156C282.076 421.247 278.598 419.334 275.131 417.399C272.242 415.791 269.341 414.206 266.438 412.625C265.562 412.129 264.686 411.634 263.784 411.123C262.967 410.683 262.15 410.243 261.309 409.789C260.595 409.394 259.881 408.999 259.146 408.592C256.087 407.748 254.828 408.588 252 410C251.434 410.278 250.868 410.555 250.285 410.841C248.243 411.851 246.217 412.888 244.191 413.93C243.437 414.316 242.683 414.702 241.906 415.1C239.457 416.355 237.01 417.615 234.562 418.875C233.722 419.307 232.882 419.739 232.016 420.184C221.784 425.444 211.608 430.779 201.547 436.361C191.837 441.71 181.942 446.702 172.068 451.741C161.357 457.209 150.714 462.761 140.205 468.611C139.413 469.052 138.621 469.492 137.805 469.945C137.134 470.322 136.464 470.698 135.773 471.086C130.484 473.812 124.796 473.66 119 473C114.916 471.346 112.646 468.875 110.062 465.375C107.288 456.563 109.422 446.997 111.004 438.112C111.217 436.873 111.43 435.635 111.649 434.358C112.229 430.994 112.818 427.631 113.41 424.268C114.03 420.733 114.639 417.197 115.25 413.66C116.407 406.97 117.572 400.282 118.742 393.595C120.329 384.517 121.903 375.437 123.477 366.358C123.856 364.171 124.235 361.984 124.614 359.797C124.737 359.088 124.86 358.378 124.987 357.647C125.716 353.448 126.446 349.25 127.179 345.051C127.525 343.069 127.871 341.086 128.216 339.103C128.636 336.692 129.057 334.282 129.479 331.872C130.399 326.59 131.285 321.314 132 316C131.413 315.739 130.826 315.477 130.221 315.208C127.868 313.928 126.338 312.573 124.46 310.671C123.785 309.993 123.111 309.315 122.416 308.617C121.696 307.883 120.976 307.15 120.234 306.395C119.482 305.637 118.73 304.88 117.955 304.099C115.548 301.675 113.149 299.244 110.75 296.812C108.365 294.399 105.978 291.988 103.588 289.579C102.102 288.082 100.62 286.581 99.1401 285.078C95.2092 281.11 91.1718 277.36 86.941 273.715C83.7275 270.876 80.7292 267.833 77.7188 264.781C77.061 264.12 76.4032 263.458 75.7255 262.776C72.9493 259.984 70.1793 257.186 67.4087 254.388C65.3683 252.33 63.3249 250.274 61.2812 248.219C60.3637 247.289 60.3637 247.289 59.4276 246.34C55.6776 242.569 51.7973 239.013 47.773 235.537C44.4491 232.656 41.3206 229.585 38.1875 226.5C37.5333 225.875 36.8791 225.25 36.2051 224.605C31.2623 219.728 28.4603 215.616 27.5625 208.562C28.1041 204.153 29.2695 200.541 32 197C36.1661 193.851 39.4529 192.374 44.5864 191.514C45.2619 191.399 45.9375 191.283 46.6334 191.164C49.086 190.755 51.5419 190.375 54 190C54.9861 189.848 55.9721 189.697 56.9881 189.54C64.8514 188.339 72.7225 187.195 80.5956 186.061C84.0223 185.567 87.4484 185.069 90.8745 184.572C96.6079 183.74 102.342 182.911 108.076 182.083C114.704 181.127 121.332 180.167 127.96 179.205C135.042 178.177 142.124 177.152 149.207 176.127C151.242 175.832 153.278 175.537 155.313 175.242C159.09 174.694 162.867 174.149 166.644 173.605C167.771 173.441 168.898 173.278 170.06 173.109C171.083 172.962 172.106 172.815 173.16 172.663C174.051 172.534 174.943 172.405 175.862 172.273C178 172 178 172 180 172C180.27 171.134 180.54 170.268 180.819 169.375C181.97 166.086 183.332 163.103 184.898 159.992C185.483 158.826 186.068 157.659 186.671 156.457C187.311 155.192 187.95 153.926 188.59 152.66C189.256 151.334 189.922 150.008 190.587 148.681C192.344 145.182 194.104 141.684 195.867 138.188C198.988 131.994 202.103 125.797 205.215 119.598C205.553 118.925 205.891 118.252 206.239 117.558C211.89 106.296 217.371 94.9596 222.773 83.5756C225.877 77.0589 229.045 70.5736 232.246 64.1038C233.014 62.5446 233.778 60.983 234.537 59.4192C235.667 57.0926 236.812 54.7742 237.961 52.457C238.294 51.7624 238.628 51.0677 238.971 50.352C241.517 45.2815 244.36 42.4271 249.312 39.75C254.637 38.2642 259.136 38.3461 264.188 40.5Z" fill="#FFD700"/>
</svg>
