<svg width="512" height="512" viewBox="0 0 512 512" fill="none" xmlns="http://www.w3.org/2000/svg">
<g clip-path="url(#clip0_71_38)">
<path d="M0.000174522 151C168.96 151 337.92 151 512 151C512.155 231.035 512.155 231.035 512.313 312.688C512.358 329.536 512.404 346.385 512.451 363.745C512.473 384.316 512.473 384.316 512.477 393.946C512.482 400.673 512.5 407.399 512.528 414.126C512.56 421.89 512.574 429.653 512.567 437.416C512.564 441.385 512.569 445.354 512.596 449.323C512.621 452.919 512.622 456.514 512.605 460.111C512.602 462.012 512.623 463.913 512.646 465.815C512.528 479.442 507.68 489.884 498.418 499.672C490.416 507.227 480.488 511.156 469.641 511.137C468.894 511.14 468.147 511.142 467.378 511.145C464.861 511.153 462.344 511.153 459.827 511.154C458.009 511.158 456.192 511.162 454.375 511.167C449.369 511.179 444.364 511.185 439.358 511.189C433.964 511.195 428.57 511.207 423.176 511.218C410.142 511.242 397.108 511.257 384.075 511.27C380.393 511.273 376.712 511.277 373.031 511.281C350.173 511.307 327.315 511.329 304.456 511.341C299.161 511.344 293.865 511.347 288.57 511.35C286.595 511.351 286.595 511.351 284.581 511.352C263.264 511.365 241.946 511.398 220.629 511.44C198.743 511.482 176.858 511.506 154.973 511.511C142.685 511.515 130.397 511.526 118.109 511.559C107.643 511.587 97.1768 511.598 86.7106 511.587C81.3723 511.582 76.0342 511.585 70.6959 511.609C65.8033 511.632 60.9113 511.631 56.0187 511.612C54.2541 511.609 52.4895 511.615 50.725 511.63C34.9466 511.756 23.0709 508.53 11.3283 497.418C4.45571 490.138 -0.12673 480.443 -0.122873 470.432C-0.124864 469.292 -0.126855 468.151 -0.128906 466.976C-0.125994 465.724 -0.123081 464.471 -0.12008 463.181C-0.120517 461.84 -0.121394 460.499 -0.122674 459.158C-0.124921 455.464 -0.120899 451.769 -0.115898 448.074C-0.111539 444.032 -0.112992 439.99 -0.113716 435.948C-0.114248 428.099 -0.109626 420.249 -0.103215 412.4C-0.0960224 403.322 -0.0952205 394.245 -0.09443 385.167C-0.089177 361.195 -0.0752159 337.222 -0.0623255 313.25C-0.0417005 259.708 -0.0210755 206.165 0.000174522 151ZM289 202C286.908 205.305 285.48 208.824 284 212.438C283.236 214.226 282.472 216.014 281.708 217.802C280.814 219.905 279.93 222.011 279.049 224.119C276.712 229.701 274.332 235.264 271.953 240.828C268.025 250.023 264.109 259.223 260.199 268.426C254.182 282.588 248.128 296.734 242.063 310.875C241.327 312.591 241.327 312.591 240.576 314.343C238.078 320.166 235.58 325.99 233.082 331.814C229.876 339.288 226.672 346.763 223.469 354.238C223.199 354.868 222.929 355.498 222.651 356.148C221.308 359.281 219.965 362.414 218.622 365.548C214.389 375.428 214.389 375.428 212.677 379.418C211.76 381.56 210.845 383.703 209.932 385.847C207.78 390.898 205.592 395.925 203.312 400.92C202.89 401.861 202.467 402.802 202.032 403.771C201.249 405.511 200.452 407.244 199.637 408.969C197.1 414.653 196.151 419.778 197 426C199.163 430.406 201.397 433.199 206 435C210.921 435.668 214.558 435.815 218.961 433.327C222.283 430.783 223.457 429.028 225.223 425.273C225.649 424.376 225.649 424.376 226.083 423.461C230.294 414.444 234.117 405.24 237.984 396.072C239.737 391.916 241.498 387.762 243.259 383.609C243.518 382.999 243.777 382.39 244.043 381.761C244.304 381.148 244.564 380.534 244.832 379.902C245.629 378.021 246.426 376.141 247.223 374.26C252.757 361.199 258.344 348.161 263.938 335.125C264.934 332.803 265.93 330.48 266.925 328.158C268.932 323.48 270.938 318.802 272.945 314.125C275.807 307.451 278.668 300.777 281.528 294.102C282.318 292.26 283.108 290.418 283.897 288.575C286.462 282.593 289.024 276.61 291.58 270.625C295.945 260.411 300.332 250.21 304.84 240.059C305.9 237.654 306.959 235.249 308.017 232.843C308.961 230.713 309.924 228.592 310.889 226.471C313.869 219.781 316.55 213.427 315 206C312.845 201.662 310.582 198.808 306 197C303.653 196.574 303.653 196.574 301.188 196.562C300.377 196.523 299.566 196.483 298.731 196.441C294.667 197.273 291.848 199.075 289 202ZM147.5 252.062C142.375 256.263 137.226 260.425 132 264.5C126.951 268.442 121.963 272.45 117 276.5C112.038 280.55 107.048 284.557 102 288.5C99.6648 290.331 97.3319 292.165 95.0002 294C94.297 294.553 93.5938 295.106 92.8693 295.675C90.6564 297.421 88.4524 299.178 86.2502 300.938C85.5579 301.481 84.8657 302.025 84.1525 302.586C83.1877 303.361 83.1877 303.361 82.2033 304.152C81.6326 304.606 81.0618 305.06 80.4738 305.527C77.4141 308.585 76.6911 311.644 76.6252 315.875C76.5968 316.697 76.5685 317.52 76.5392 318.367C77.7419 325.236 83.1958 329.145 88.3752 333.188C89.4387 334.034 89.4387 334.034 90.5236 334.898C92.6753 336.608 94.8362 338.306 97.0002 340C98.2008 340.944 99.4013 341.888 100.602 342.832C102.303 344.168 104.004 345.503 105.709 346.835C110.875 350.877 115.958 355.017 121.039 359.164C125.878 363.106 130.766 366.98 135.689 370.816C138.92 373.342 142.118 375.903 145.289 378.504C146.372 379.391 146.372 379.391 147.477 380.297C148.878 381.448 150.277 382.603 151.672 383.762C152.309 384.285 152.946 384.808 153.602 385.348C154.162 385.812 154.722 386.276 155.299 386.754C160.282 390.404 164.954 390.919 171 390C175.354 388.002 178.237 385.5 180 381C180.389 378.617 180.389 378.617 180.375 376.125C180.404 375.303 180.432 374.48 180.461 373.633C179.258 366.764 173.805 362.855 168.625 358.812C167.562 357.966 167.562 357.966 166.477 357.102C164.325 355.392 162.164 353.694 160 352C158.8 351.056 157.599 350.112 156.399 349.168C154.698 347.832 152.996 346.497 151.292 345.165C146.138 341.133 141.066 337.002 135.996 332.865C129.399 327.489 122.711 322.232 116 317C117.539 312.782 120.656 310.658 124.125 308.062C125.4 307.086 126.673 306.108 127.945 305.129C128.611 304.619 129.276 304.108 129.962 303.583C133.356 300.947 136.676 298.222 140 295.5C144.985 291.432 149.996 287.403 155.063 283.438C155.622 282.998 156.181 282.559 156.757 282.107C159.172 280.211 161.589 278.318 164.017 276.439C166.079 274.841 168.134 273.234 170.188 271.625C171.142 270.893 171.142 270.893 172.116 270.146C176.268 266.876 179.477 263.977 180.434 258.535C180.443 252.862 179.961 249.389 176 245C172.179 241.629 168.479 241.62 163.598 241.504C157.37 242.693 152.293 248.104 147.5 252.062ZM333.125 248.125C331.461 252.378 331.014 256.523 332 261C334.789 266.116 338.655 269.692 343.313 273.125C344.56 274.074 345.806 275.025 347.051 275.977C347.698 276.468 348.344 276.959 349.01 277.466C352.396 280.076 355.694 282.791 359 285.5C364.538 290.02 370.119 294.479 375.751 298.882C382.546 304.198 389.272 309.6 396 315C394.461 319.218 391.344 321.342 387.875 323.938C386.601 324.914 385.327 325.892 384.055 326.871C383.389 327.381 382.724 327.892 382.038 328.417C378.644 331.053 375.325 333.778 372 336.5C367.016 340.568 362.004 344.597 356.938 348.562C356.378 349.002 355.819 349.441 355.243 349.893C352.828 351.789 350.411 353.682 347.984 355.561C345.921 357.159 343.866 358.766 341.813 360.375C340.858 361.107 340.858 361.107 339.885 361.854C335.733 365.124 332.524 368.023 331.567 373.465C331.558 379.138 332.039 382.611 336 387C339.821 390.371 343.521 390.38 348.403 390.496C354.63 389.307 359.707 383.896 364.5 379.938C369.626 375.737 374.774 371.575 380 367.5C385.049 363.558 390.038 359.55 395 355.5C399.963 351.45 404.953 347.443 410 343.5C412.336 341.669 414.668 339.835 417 338C417.703 337.447 418.407 336.894 419.131 336.325C421.344 334.579 423.548 332.822 425.75 331.062C426.442 330.519 427.135 329.975 427.848 329.414C428.491 328.897 429.134 328.38 429.797 327.848C430.653 327.167 430.653 327.167 431.527 326.473C434.586 323.415 435.309 320.356 435.375 316.125C435.404 315.303 435.432 314.48 435.461 313.633C434.259 306.764 428.805 302.855 423.625 298.812C422.916 298.248 422.207 297.683 421.477 297.102C419.325 295.392 417.164 293.694 415 292C413.8 291.056 412.599 290.112 411.399 289.168C409.698 287.832 407.996 286.497 406.292 285.165C401.126 281.123 396.043 276.983 390.961 272.836C386.122 268.894 381.234 265.02 376.311 261.184C373.08 258.658 369.882 256.097 366.711 253.496C365.989 252.904 365.267 252.313 364.524 251.703C363.122 250.552 361.724 249.397 360.328 248.238C359.691 247.715 359.055 247.192 358.399 246.652C357.838 246.188 357.278 245.724 356.701 245.246C348.646 239.345 339.645 240.736 333.125 248.125Z" fill="black"/>
<path d="M42.3588 0.862825C43.1057 0.860173 43.8527 0.857522 44.6223 0.854789C47.1394 0.847096 49.6565 0.846537 52.1736 0.845939C53.9909 0.841925 55.8083 0.837487 57.6256 0.83266C62.631 0.820688 67.6363 0.815044 72.6417 0.810479C78.0359 0.804525 83.4302 0.792914 88.8244 0.782188C101.858 0.757658 114.892 0.743036 127.926 0.730128C131.607 0.726416 135.288 0.722443 138.969 0.718375C161.827 0.693138 184.686 0.671084 207.544 0.658647C212.839 0.655718 218.135 0.652756 223.43 0.649742C224.747 0.648996 226.063 0.64825 227.419 0.647481C248.736 0.63483 270.054 0.60161 291.372 0.55994C313.257 0.517512 335.142 0.493951 357.027 0.488727C369.315 0.485314 381.603 0.473569 393.891 0.440624C404.357 0.41261 414.823 0.40163 425.29 0.412819C430.628 0.418003 435.966 0.415141 441.304 0.390354C446.197 0.367826 451.089 0.368629 455.982 0.387558C457.746 0.390353 459.511 0.384787 461.275 0.369745C477.054 0.243524 488.929 3.47029 500.672 14.5819C525.531 40.9151 512 97.7333 512 121C343.04 121 174.08 121 0 121C0 26.6813 0 26.6813 13.582 12.328C21.5846 4.77323 31.5122 0.844129 42.3588 0.862825ZM334 66.9998C331.279 71.4676 331.349 75.9128 332 80.9998C334.193 85.468 336.487 87.9085 341 89.9998C345.534 91.2112 350.06 91.1477 354.718 91.1451C356.019 91.1501 356.019 91.1501 357.346 91.1553C360.208 91.1648 363.069 91.1667 365.93 91.1678C367.924 91.171 369.918 91.1744 371.911 91.1779C376.089 91.1839 380.267 91.1857 384.445 91.1851C389.79 91.185 395.135 91.1987 400.481 91.2159C404.598 91.227 408.716 91.2291 412.834 91.2285C414.804 91.2297 416.775 91.2341 418.745 91.2419C421.504 91.2517 424.264 91.2488 427.023 91.2428C428.236 91.2512 428.236 91.2512 429.473 91.2598C435.64 91.2257 440.984 90.7471 445.812 86.5623C449.751 81.9489 450.445 79.4097 450.316 73.5077C449.85 69.8076 448.474 67.7417 446 64.9998C440.217 60.6996 434.256 60.8507 427.282 60.8546C425.981 60.8495 425.981 60.8495 424.654 60.8444C421.792 60.8349 418.931 60.8329 416.07 60.8319C414.076 60.8287 412.082 60.8253 410.089 60.8218C405.911 60.8158 401.733 60.8139 397.555 60.8145C392.21 60.8146 386.865 60.801 381.52 60.7838C377.402 60.7726 373.284 60.7706 369.166 60.7711C367.196 60.77 365.225 60.7656 363.255 60.7578C360.496 60.748 357.736 60.7509 354.977 60.7569C353.764 60.7485 353.764 60.7485 352.527 60.7399C345.34 60.7796 339.335 61.8171 334 66.9998ZM64 66.9998C61.2421 71.4236 61.3528 75.9419 62 80.9998C64.163 85.4059 66.3968 88.1986 71 89.9998C76.0433 90.6841 79.8308 90.5738 84.4375 88.3123C87.7966 85.281 89.6936 83.2584 90.3164 78.6678C90.5821 72.9503 89.9685 69.3973 86 64.9998C82.2008 61.6476 78.3993 61.4319 73.5078 61.578C69.5418 62.2452 66.716 64.0678 64 66.9998ZM124 66.9998C121.242 71.4236 121.353 75.9419 122 80.9998C124.163 85.4059 126.397 88.1986 131 89.9998C136.043 90.6841 139.831 90.5738 144.438 88.3123C147.797 85.281 149.694 83.2584 150.316 78.6678C150.582 72.9503 149.968 69.3973 146 64.9998C142.201 61.6476 138.399 61.4319 133.508 61.578C129.542 62.2452 126.716 64.0678 124 66.9998ZM184 66.9998C181.242 71.4236 181.353 75.9419 182 80.9998C184.163 85.4059 186.397 88.1986 191 89.9998C196.043 90.6841 199.831 90.5738 204.438 88.3123C207.797 85.281 209.694 83.2584 210.316 78.6678C210.582 72.9503 209.968 69.3973 206 64.9998C202.201 61.6476 198.399 61.4319 193.508 61.578C189.542 62.2452 186.716 64.0678 184 66.9998Z" fill="black"/>
</g>
<defs>
<clipPath id="clip0_71_38">
<rect width="512" height="512" fill="white"/>
</clipPath>
</defs>
</svg>
