<svg width="512" height="512" viewBox="0 0 512 512" fill="none" xmlns="http://www.w3.org/2000/svg">
<path d="M262 96C267.413 99.1243 271.566 103.275 275.953 107.687C277.065 108.797 277.065 108.797 278.2 109.928C279.759 111.486 281.315 113.046 282.869 114.608C285.249 116.999 287.64 119.379 290.031 121.758C291.548 123.275 293.063 124.794 294.578 126.312C295.293 127.023 296.007 127.734 296.743 128.466C297.405 129.133 298.066 129.801 298.747 130.488C299.329 131.071 299.91 131.654 300.509 132.255C303.678 135.964 304.314 139.045 304.375 143.875C304.403 144.883 304.432 145.891 304.461 146.93C303.385 154.095 297.231 159.063 292.313 163.953C291.573 164.695 290.833 165.436 290.072 166.2C288.514 167.759 286.954 169.315 285.392 170.869C283.001 173.249 280.621 175.64 278.242 178.031C276.725 179.548 275.206 181.063 273.688 182.578C272.977 183.293 272.267 184.007 271.534 184.743C270.867 185.405 270.199 186.066 269.512 186.747C268.929 187.329 268.346 187.91 267.745 188.509C263.122 192.459 258.805 192.427 252.914 192.312C247.613 191.744 245.16 189.221 241.625 185.5C239.232 180.346 239.226 175.59 240 170C241.879 166.306 244.096 163.871 247 161C238.993 160.953 230.986 160.918 222.979 160.896C219.26 160.886 215.541 160.872 211.822 160.849C208.223 160.827 204.625 160.815 201.026 160.81C199.006 160.805 196.985 160.789 194.965 160.773C180.034 160.772 167.119 162.483 155.82 172.98C147.614 182.085 145.38 191.966 145.691 203.988C146.286 214.467 151.358 222.645 158.844 229.75C170.129 239.001 183.63 239.148 197.522 239.142C198.878 239.145 200.234 239.148 201.59 239.152C204.498 239.16 207.407 239.165 210.315 239.169C214.928 239.175 219.54 239.191 224.153 239.21C225.738 239.216 227.323 239.223 228.908 239.229C229.702 239.232 230.495 239.235 231.313 239.239C242.04 239.28 252.767 239.314 263.493 239.326C270.746 239.334 277.997 239.357 285.249 239.395C289.077 239.415 292.904 239.428 296.731 239.422C300.339 239.418 303.946 239.432 307.554 239.459C309.482 239.469 311.41 239.46 313.338 239.45C332.519 239.651 349.776 246.667 363.352 260.227C378.426 276.012 384.553 293.246 384.418 315.001C383.909 335.499 375.652 352.008 361 366C346.954 379.314 329.383 384.455 310.337 384.432C309.028 384.443 307.719 384.453 306.371 384.463C302.822 384.491 299.274 384.5 295.725 384.506C292.001 384.516 288.278 384.542 284.554 384.566C277.521 384.61 270.488 384.638 263.455 384.661C255.44 384.689 247.425 384.733 239.411 384.778C222.94 384.87 206.47 384.942 190 385C189.389 386.138 189.389 386.138 188.766 387.299C188.23 388.292 187.693 389.286 187.14 390.309C186.609 391.295 186.078 392.28 185.531 393.296C179.421 404.088 169.42 411.714 157.637 415.305C143.28 418.05 129.023 416.874 116.688 408.688C106.448 400.955 97.9604 391.091 96 378C94.5708 360.554 97.1824 347.647 108.656 334.035C116.662 325.406 126.948 320.333 138.656 319.684C153.137 319.198 164.704 321.315 176 331C180.889 335.647 184.651 340.119 187.632 346.182C188.077 347.084 188.522 347.986 188.98 348.915C189.485 349.947 189.485 349.947 190 351C205.7 351.047 221.399 351.082 237.099 351.104C244.389 351.114 251.68 351.128 258.971 351.151C265.33 351.171 271.69 351.184 278.049 351.188C281.412 351.191 284.775 351.198 288.137 351.211C291.904 351.226 295.671 351.228 299.439 351.227C301.085 351.238 301.085 351.238 302.765 351.249C317.033 351.211 329.439 348.999 340.18 339.02C348.386 329.915 350.62 320.034 350.309 308.012C349.714 297.533 344.642 289.355 337.156 282.25C325.871 272.999 312.37 272.852 298.478 272.858C297.122 272.855 295.766 272.852 294.41 272.848C291.502 272.84 288.593 272.835 285.685 272.831C281.072 272.825 276.46 272.809 271.847 272.79C270.262 272.784 268.677 272.777 267.092 272.771C266.298 272.768 265.505 272.765 264.687 272.761C253.96 272.72 243.233 272.686 232.507 272.674C225.255 272.666 218.003 272.643 210.751 272.605C206.923 272.585 203.096 272.572 199.269 272.578C195.661 272.582 192.054 272.568 188.447 272.541C186.518 272.531 184.59 272.54 182.662 272.55C163.481 272.349 146.224 265.333 132.648 251.773C117.574 235.988 111.447 218.754 111.582 196.999C112.091 176.501 120.348 159.992 135 146C150.377 131.424 169.021 127.568 189.578 127.488C191.243 127.471 192.907 127.453 194.571 127.434C198.911 127.387 203.251 127.357 207.591 127.33C212.036 127.3 216.481 127.254 220.926 127.209C229.617 127.123 238.308 127.056 247 127C246.579 126.518 246.157 126.036 245.723 125.539C245.175 124.907 244.627 124.276 244.063 123.625C243.517 122.999 242.972 122.372 242.41 121.727C238.725 117.214 239.484 111.55 240 106C244.352 96.6256 252.276 94.2781 262 96ZM130.625 359.625C128.421 364.203 128.203 368.006 129 373C131.33 377.839 134.161 380.67 139 383C143.995 383.797 147.797 383.579 152.375 381.375C155.959 378.132 158.595 375.535 159.383 370.602C159.639 364.918 158.936 361.351 155 357C150.649 353.064 147.082 352.361 141.398 352.617C136.465 353.405 133.868 356.041 130.625 359.625Z" fill="white"/>
<path d="M395.313 103.313C405.552 111.045 414.04 120.909 416 134C417.429 151.446 414.818 164.353 403.344 177.965C395.338 186.594 385.052 191.667 373.344 192.316C356.657 192.876 344.67 189.21 332.25 177.688C322.257 167.129 319.486 155.582 319.58 141.47C319.991 127.347 325.837 116.271 336.063 106.594C352.72 92.8919 377.263 91.3331 395.313 103.313ZM354.625 135.625C352.421 140.203 352.203 144.006 353 149C355.33 153.839 358.162 156.67 363 159C367.995 159.797 371.797 159.579 376.375 157.375C379.959 154.132 382.595 151.535 383.383 146.602C383.639 140.918 382.936 137.351 379 133C374.65 129.064 371.082 128.361 365.399 128.617C360.465 129.405 357.868 132.041 354.625 135.625Z" fill="white"/>
</svg>
