<svg width="512" height="512" viewBox="0 0 512 512" fill="none" xmlns="http://www.w3.org/2000/svg">
<path d="M213.5 8.62499C214.671 8.6258 214.671 8.6258 215.866 8.62663C237.08 8.69412 256.843 12.4383 277 19C277.695 19.2238 278.389 19.4476 279.105 19.6782C309.507 29.6923 335.994 48.0957 359 70C359.982 70.9204 359.982 70.9204 360.985 71.8594C377.841 88.0973 390.289 108.96 400 130C388.45 141.55 376.9 153.1 365 165C362.195 161.26 360.919 158.508 359.313 154.187C352.133 135.622 341.183 119.808 328 105C327.38 104.295 326.76 103.59 326.121 102.863C302.99 78.1801 267.347 61.867 234 58C233.165 57.8904 232.33 57.7808 231.469 57.668C191.805 53.1879 150.233 64.1346 118.688 88.7578C115.07 91.7763 111.581 94.9163 108.156 98.1523C106 100 106 100 103.844 101.004C101.455 102.295 101.149 103.572 100 106C98.5752 107.573 97.1112 109.11 95.6252 110.625C69.2934 139.202 55.8866 179.633 56.7463 218.191C58.3047 255.79 72.3224 291.15 97.9572 318.746C99.3757 320.311 100.736 321.93 102.047 323.586C122.769 349.199 161.729 365.7 193.617 369.687C213.36 371.516 233.789 371.126 253 366C254.149 365.694 254.149 365.694 255.321 365.383C278.746 358.872 299.685 346.817 318 331C318.802 330.321 319.604 329.641 320.43 328.941C325.42 324.632 329.84 320.111 334 315C334.749 314.1 335.498 313.2 336.27 312.273C344.017 302.636 350.469 292.063 356 281C358.299 280.514 360.616 280.112 362.938 279.75C376.623 277.293 386.167 268.75 394.977 258.348C397.646 255.251 400.413 252.252 403.188 249.25C403.699 248.695 404.211 248.14 404.738 247.568C406.152 246.038 407.574 244.518 409 243C409.739 242.211 410.477 241.422 411.238 240.609C413 239 413 239 415 239C411.676 264.514 404.082 288.313 392 311C391.689 311.595 391.377 312.19 391.056 312.804C366.575 359.253 321.856 393.595 272.242 409.176C219.102 425.115 162.373 418.834 113.595 392.712C97.4911 383.871 83.2288 372.669 70.0002 360C69.5013 359.528 69.0024 359.057 68.4884 358.571C60.4944 350.985 53.4982 342.899 47.0002 334C46.5856 333.435 46.171 332.87 45.7438 332.288C20.8733 297.925 8.52177 256.807 8.62516 214.625C8.62603 213.748 8.62691 212.87 8.62781 211.967C8.81503 154.921 32.8937 104.614 72.9345 64.7629C79.2365 58.6227 85.8688 53.1436 93.0002 48C93.5486 47.5965 94.0971 47.193 94.6623 46.7773C129.141 21.6356 171.012 8.51234 213.5 8.62499Z" fill="black"/>
<path d="M415 331C417.809 332.282 419.868 333.617 422.053 335.793C422.629 336.362 423.205 336.93 423.799 337.517C424.419 338.139 425.038 338.761 425.677 339.402C426.339 340.06 427.002 340.717 427.684 341.394C429.874 343.57 432.056 345.753 434.238 347.938C435.763 349.458 437.287 350.978 438.812 352.498C442.01 355.689 445.205 358.884 448.397 362.082C452.471 366.161 456.555 370.228 460.643 374.293C463.798 377.433 466.945 380.58 470.091 383.729C471.593 385.23 473.097 386.729 474.604 388.225C490.473 404.002 502.64 419.415 503.438 442.812C502.958 461.521 495.367 476.183 482 489C468.704 500.637 452.455 502.802 435.488 502.175C422.126 501.236 409.631 494.771 400.025 485.671C399.469 485.151 398.913 484.631 398.341 484.095C391.475 477.629 384.822 470.947 378.168 464.266C376.797 462.893 375.425 461.52 374.054 460.147C370.489 456.579 366.927 453.007 363.367 449.435C359.714 445.773 356.059 442.113 352.404 438.453C345.267 431.305 338.132 424.153 331 417C332.489 413.825 333.572 412.306 336.57 410.441C337.294 409.98 338.018 409.518 338.764 409.042C339.543 408.554 340.322 408.066 341.125 407.562C361.486 394.404 379.999 378.056 395 359C395.804 357.989 396.609 356.979 397.438 355.938C403.753 347.923 409.44 339.553 415 331Z" fill="black"/>
<path d="M471.375 119.375C475.048 123.048 476.294 125.684 476.375 130.875C476.403 131.698 476.432 132.52 476.461 133.367C475.32 139.886 469.666 144.617 465.155 149.088C464.475 149.77 463.795 150.452 463.094 151.155C460.854 153.399 458.607 155.635 456.359 157.871C454.792 159.437 453.225 161.004 451.659 162.571C448.376 165.851 445.091 169.128 441.803 172.403C437.604 176.585 433.412 180.773 429.222 184.964C425.986 188.2 422.747 191.433 419.508 194.665C417.962 196.207 416.417 197.751 414.872 199.294C412.705 201.46 410.534 203.622 408.362 205.783C407.419 206.727 407.419 206.727 406.457 207.69C402.707 211.413 398.843 214.95 394.831 218.39C391.766 221.085 388.934 224.002 386.086 226.922C384.818 228.207 383.55 229.493 382.281 230.777C380.319 232.771 378.358 234.767 376.403 236.768C374.492 238.722 372.571 240.666 370.648 242.609C370.07 243.206 369.492 243.803 368.896 244.418C365.091 248.247 361.354 251.371 355.875 252.399C355.256 252.391 354.638 252.383 354 252.375C353.381 252.383 352.763 252.391 352.125 252.399C346.498 251.343 342.655 248.026 338.729 244.07C338.24 243.582 337.752 243.093 337.249 242.591C335.651 240.991 334.064 239.38 332.477 237.77C331.365 236.652 330.252 235.536 329.139 234.419C326.223 231.492 323.315 228.555 320.41 225.616C317.439 222.614 314.459 219.621 311.48 216.627C305.645 210.76 299.82 204.883 294 199C288.912 203.25 284.189 207.705 279.555 212.442C278.089 213.932 276.622 215.422 275.155 216.911C274.388 217.692 273.621 218.473 272.83 219.278C268.737 223.44 264.627 227.586 260.52 231.734C255.307 237.001 250.099 242.273 244.911 247.563C240.703 251.851 236.479 256.122 232.243 260.382C230.636 262.005 229.036 263.633 227.442 265.268C225.212 267.553 222.961 269.816 220.704 272.075C220.055 272.751 219.406 273.426 218.738 274.122C214.239 278.562 210.35 280.522 204 281C196.387 280.458 191.483 275.285 186.465 270.051C185.701 269.278 184.937 268.506 184.149 267.71C181.731 265.258 179.334 262.786 176.938 260.313C175.294 258.639 173.649 256.966 172.002 255.295C167.985 251.212 163.986 247.113 160 243C154.039 247.94 148.585 253.285 143.129 258.774C141.745 260.159 141.745 260.159 140.334 261.573C137.904 264.007 135.476 266.444 133.05 268.882C130.564 271.377 128.076 273.87 125.588 276.363C120.722 281.239 115.86 286.119 111 291C106.829 289.149 105.462 287.01 103.125 283.063C102.612 282.199 102.612 282.199 102.088 281.319C101.045 279.553 100.02 277.779 99 276C98.389 274.944 97.778 273.889 97.1484 272.801C93 265.438 93 265.438 93 262C94.3984 260.527 94.3984 260.527 96.375 258.938C99.7627 256.107 102.904 253.149 106 250C108.896 247.069 111.802 244.236 114.938 241.563C118.289 238.698 121.406 235.637 124.5 232.5C128.188 228.762 131.965 225.217 135.969 221.82C138.454 219.594 140.742 217.21 143.062 214.813C148.854 209.013 153.161 205.595 161.594 205.469C168.905 207.083 173.862 212.456 178.902 217.609C179.986 218.7 179.986 218.7 181.092 219.812C183.381 222.118 185.659 224.434 187.938 226.75C189.495 228.322 191.053 229.894 192.611 231.465C196.416 235.302 200.211 239.148 204 243C206.993 241.657 209.067 240.177 211.371 237.85C212.017 237.202 212.663 236.554 213.329 235.887C214.026 235.177 214.724 234.468 215.443 233.736C216.558 232.614 216.558 232.614 217.696 231.469C219.31 229.845 220.921 228.218 222.53 226.59C225.077 224.013 227.63 221.443 230.185 218.875C237.447 211.573 244.698 204.257 251.945 196.939C256.378 192.463 260.818 187.994 265.263 183.53C266.956 181.826 268.646 180.12 270.334 178.411C272.691 176.021 275.058 173.642 277.427 171.264C278.123 170.554 278.819 169.844 279.536 169.113C283.95 164.707 287.058 162.268 293.438 161.688C299.91 162.255 303.801 165.427 308.271 169.931C309.004 170.663 309.004 170.663 309.751 171.41C311.349 173.01 312.936 174.62 314.523 176.231C315.635 177.348 316.748 178.465 317.861 179.581C320.777 182.509 323.685 185.445 326.59 188.384C329.561 191.386 332.541 194.379 335.52 197.373C341.355 203.24 347.18 209.117 353 215C358.634 210.315 363.819 205.305 368.977 200.105C369.848 199.231 370.719 198.357 371.616 197.457C373.497 195.569 375.376 193.68 377.255 191.79C380.228 188.799 383.205 185.812 386.183 182.826C394.646 174.339 403.103 165.846 411.555 157.349C416.234 152.646 420.915 147.947 425.601 143.251C428.56 140.286 431.515 137.316 434.466 134.342C436.734 132.06 439.008 129.784 441.282 127.507C442.094 126.686 442.907 125.864 443.744 125.018C444.875 123.889 444.875 123.889 446.029 122.737C447.004 121.758 447.004 121.758 447.999 120.758C455.233 114.404 463.554 113.179 471.375 119.375Z" fill="black"/>
</svg>
