<svg width="512" height="512" viewBox="0 0 512 512" fill="none" xmlns="http://www.w3.org/2000/svg">
<g clip-path="url(#clip0_71_23)">
<path d="M294 3C294.833 3.19867 295.666 3.39735 296.524 3.60205C339.009 14.121 375.978 37.6268 402 73C402.423 73.5732 402.846 74.1463 403.281 74.7368C422.955 101.811 435.994 136.516 436.203 170.207C436.21 170.966 436.217 171.725 436.224 172.506C436.242 174.942 436.248 177.377 436.25 179.812C436.251 180.644 436.251 181.476 436.252 182.333C436.236 194.472 435.852 206.149 433 218C432.823 218.774 432.646 219.547 432.464 220.344C425.598 249.985 412.118 275.465 393 299C377.812 317.768 368.849 337.603 363 361C347.49 361 331.98 361 316 361C316.017 357.02 316.034 353.041 316.051 348.941C316.1 335.721 316.1 322.502 316.075 309.283C316.061 301.276 316.064 293.269 316.106 285.262C316.143 278.273 316.148 271.285 316.116 264.295C316.1 260.604 316.099 256.913 316.137 253.222C316.297 236.477 315.329 222.347 307.254 207.341C306.014 205.027 304.863 202.686 303.732 200.317C301.5 195.654 299.178 191.041 296.844 186.43C296.007 184.763 295.17 183.096 294.334 181.429C292.169 177.118 289.998 172.809 287.825 168.502C284.319 161.549 280.823 154.591 277.327 147.633C276.113 145.217 274.895 142.803 273.676 140.389C272.937 138.92 272.198 137.452 271.459 135.984C271.121 135.317 270.784 134.65 270.436 133.963C269.113 131.329 267.934 128.801 267 126C262.787 123.63 257.795 122.899 253 123C249.631 124.307 249.631 124.307 247 126C246.34 126 245.68 126 245 126C244.75 126.664 244.499 127.328 244.241 128.012C242.71 131.7 240.944 135.236 239.149 138.801C238.771 139.555 238.393 140.309 238.004 141.086C236.796 143.496 235.586 145.904 234.375 148.312C233.585 149.889 232.794 151.465 232.004 153.041C230.434 156.173 228.862 159.305 227.29 162.436C225.129 166.741 222.976 171.05 220.824 175.359C218.441 180.133 216.041 184.897 213.621 189.652C213.092 190.697 212.563 191.742 212.018 192.818C210.965 194.896 209.908 196.972 208.846 199.045C207.487 201.738 206.186 204.451 204.896 207.177C204.046 208.907 203.117 210.598 202.184 212.285C195.212 225.767 195.996 240.205 196.088 254.984C196.104 258.722 196.08 262.46 196.061 266.199C196.029 273.25 196.033 280.3 196.051 287.351C196.068 295.39 196.046 303.429 196.021 311.468C195.97 327.979 195.974 344.489 196 361C180.49 361 164.98 361 149 361C147.02 353.74 145.04 346.48 143 339C136.884 323.307 128.907 310.823 118 298C90.2252 264.888 75.5183 224.898 75.6251 181.625C75.6256 180.792 75.6262 179.96 75.6267 179.102C75.6904 157.809 79.0734 138.145 86.0001 118C86.4165 116.757 86.8328 115.515 87.2618 114.234C93.5255 97.155 103.258 80.8606 115 67C115.932 65.8564 116.863 64.7118 117.793 63.5664C146.388 28.7837 188.464 5.46984 233.302 0.309079C253.166 -1.35122 274.539 -1.65213 294 3Z" fill="black"/>
<path d="M151 391C220.3 391 289.6 391 361 391C361 424.343 361 424.343 349 438C341.097 445.434 331.095 451.231 320.038 451.267C318.867 451.276 317.697 451.284 316.491 451.293C315.221 451.292 313.951 451.291 312.642 451.291C311.279 451.297 309.917 451.303 308.555 451.311C304.864 451.329 301.174 451.333 297.484 451.335C295.174 451.336 292.864 451.34 290.554 451.346C282.481 451.364 274.409 451.372 266.337 451.371C258.834 451.369 251.332 451.39 243.829 451.422C237.371 451.448 230.914 451.459 224.456 451.458C220.606 451.457 216.757 451.463 212.907 451.484C209.281 451.504 205.656 451.503 202.031 451.489C200.083 451.486 198.134 451.503 196.187 451.52C183.317 451.429 173.666 447.493 164 439C150.267 424.401 151 411.897 151 391Z" fill="black"/>
<path d="M226 249C235.9 250.98 235.9 250.98 246 253C249.598 253.308 252.769 253.545 256.312 253.438C257.127 253.426 257.941 253.415 258.78 253.404C266.417 253.195 273.595 251.821 281 250C282.65 249.67 284.3 249.34 286 249C286 285.96 286 322.92 286 361C266.2 361 246.4 361 226 361C226 324.04 226 287.08 226 249Z" fill="black"/>
<path d="M183 481C231.18 481 279.36 481 329 481C321.743 495.514 314.661 505.776 298.799 511.068C294.868 512.032 291.237 512.296 287.22 512.291C286.104 512.301 286.104 512.301 284.965 512.311C282.523 512.33 280.082 512.334 277.641 512.336C275.928 512.342 274.216 512.349 272.503 512.356C268.919 512.368 265.335 512.372 261.751 512.371C257.184 512.37 252.617 512.398 248.051 512.432C244.514 512.455 240.978 512.458 237.441 512.457C235.759 512.46 234.077 512.468 232.394 512.484C217.596 512.608 205.741 510.153 194.617 499.777C188.715 493.632 186.837 489.442 183 481Z" fill="black"/>
<path d="M475 260C482.355 263.692 488.101 269.644 493.812 275.438C494.645 276.258 495.477 277.079 496.334 277.924C506.047 287.684 506.047 287.684 507.531 294.406C507.451 299.79 506.616 303.871 503 308C499.596 310.981 496.121 312.272 491.625 312.625C481.92 311.968 474.604 303.071 468.188 296.563C466.939 295.332 466.939 295.332 465.666 294.076C455.953 284.316 455.953 284.316 454.469 277.594C454.549 272.21 455.384 268.129 459 264C463.712 259.874 468.914 258.808 475 260Z" fill="black"/>
<path d="M47.9883 260.66C51.9055 262.598 54.4132 265.09 56.332 269.019C57.6227 272.846 57.7749 276.043 57 280C53.308 287.355 47.3556 293.101 41.5625 298.812C40.742 299.644 39.9215 300.476 39.0762 301.334C29.3164 311.047 29.3164 311.047 22.5938 312.531C17.2096 312.451 13.1293 311.616 9 308C6.01901 304.595 4.7281 301.121 4.375 296.625C5.03238 286.92 13.929 279.604 20.4375 273.187C21.6682 271.939 21.6682 271.939 22.9238 270.666C30.1822 263.442 37.2257 257.087 47.9883 260.66Z" fill="black"/>
<path d="M497.988 80.6599C501.905 82.5976 504.413 85.0896 506.332 89.0193C507.623 92.8461 507.775 96.0429 507 99.9998C503.308 107.355 497.356 113.101 491.562 118.812C490.742 119.644 489.922 120.476 489.076 121.334C479.316 131.047 479.316 131.047 472.594 132.531C467.21 132.451 463.129 131.616 459 128C456.019 124.595 454.728 121.121 454.375 116.625C455.032 106.92 463.929 99.6042 470.438 93.1873C471.668 91.9391 471.668 91.9391 472.924 90.6658C480.182 83.4422 487.226 77.0865 497.988 80.6599Z" fill="black"/>
<path d="M25 80C32.3554 83.692 38.101 89.6445 43.8125 95.4375C44.6446 96.258 45.4767 97.0785 46.334 97.9239C56.047 107.684 56.047 107.684 57.5312 114.406C57.4509 119.79 56.6158 123.871 53 128C49.5957 130.981 46.1211 132.272 41.625 132.625C31.9201 131.968 24.6044 123.071 18.1875 116.563C16.9394 115.332 16.9394 115.332 15.666 114.076C5.95297 104.316 5.95297 104.316 4.46875 97.5938C4.54911 92.2096 5.3842 88.1293 9 84C13.712 79.874 18.9141 78.8083 25 80Z" fill="black"/>
<path d="M470.465 180.566C471.376 180.561 472.287 180.556 473.225 180.55C475.147 180.544 477.07 180.545 478.992 180.554C481.924 180.562 484.855 180.534 487.787 180.502C489.659 180.5 491.531 180.501 493.402 180.504C494.274 180.493 495.146 180.481 496.045 180.47C501.516 180.532 504.664 181.35 509 185C513.056 190.222 512.774 195.653 512 202C509.827 206.587 507.563 208.871 503 211C499.844 211.445 496.718 211.444 493.535 211.433C492.624 211.439 491.713 211.444 490.775 211.449C488.853 211.456 486.93 211.454 485.008 211.446C482.076 211.437 479.145 211.466 476.213 211.498C474.341 211.5 472.469 211.499 470.598 211.496C469.726 211.507 468.854 211.518 467.955 211.53C462.484 211.468 459.336 210.65 455 207C450.944 201.777 451.226 196.346 452 190C456.038 181.475 461.838 180.537 470.465 180.566Z" fill="black"/>
<path d="M18.4648 180.566C19.3758 180.561 20.2867 180.556 21.2252 180.55C23.1474 180.544 25.0697 180.545 26.9919 180.554C29.9244 180.562 32.8549 180.534 35.7871 180.502C37.6588 180.5 39.5306 180.501 41.4023 180.504C42.2744 180.493 43.1464 180.481 44.0449 180.47C49.5162 180.532 52.6639 181.35 57 185C61.0563 190.222 60.774 195.653 60 202C57.8272 206.587 55.5629 208.871 51 211C47.8442 211.445 44.7184 211.444 41.5351 211.433C40.6242 211.439 39.7133 211.444 38.7748 211.449C36.8525 211.456 34.9303 211.454 33.008 211.446C30.0756 211.437 27.1451 211.466 24.2129 211.498C22.3411 211.5 20.4694 211.499 18.5976 211.496C17.7256 211.507 16.8536 211.518 15.9551 211.53C10.4838 211.468 7.33604 210.65 2.99999 207C-1.05632 201.777 -0.773988 196.346 -1.29044e-05 190C4.0379 181.475 9.83796 180.537 18.4648 180.566Z" fill="black"/>
<path d="M255 169C255.66 169 256.32 169 257 169C260.426 175.777 263.843 182.558 267.254 189.343C268.416 191.652 269.58 193.959 270.746 196.266C272.42 199.577 274.086 202.891 275.75 206.207C276.275 207.241 276.8 208.276 277.341 209.342C277.821 210.303 278.302 211.263 278.797 212.253C279.223 213.099 279.65 213.945 280.089 214.817C281 217 281 217 281 220C264.108 225.944 247.903 226.524 231 220C231.593 216.382 232.577 213.479 234.225 210.21C234.685 209.289 235.146 208.369 235.62 207.42C236.118 206.44 236.616 205.459 237.129 204.449C237.638 203.435 238.147 202.421 238.672 201.377C240.296 198.144 241.929 194.916 243.562 191.688C244.667 189.494 245.77 187.301 246.873 185.107C249.576 179.735 252.285 174.366 255 169Z" fill="black"/>
</g>
<defs>
<clipPath id="clip0_71_23">
<rect width="512" height="512" fill="white"/>
</clipPath>
</defs>
</svg>
