<svg width="512" height="512" viewBox="0 0 512 512" fill="none" xmlns="http://www.w3.org/2000/svg">
<g clip-path="url(#clip0_71_47)">
<path d="M435.07 -0.203064C436.273 -0.208764 437.475 -0.214464 438.714 -0.220337C441.236 -0.229717 443.759 -0.236293 446.282 -0.240173C450.122 -0.24993 453.961 -0.281042 457.801 -0.312439C460.266 -0.318966 462.73 -0.324218 465.195 -0.328064C466.331 -0.340411 467.467 -0.352758 468.637 -0.365479C480.731 -0.331924 491.111 2.81039 500.23 11.004C507.765 18.9059 512.078 28.2978 512.161 39.2481C512.171 40.2763 512.18 41.3045 512.19 42.3639C512.194 43.471 512.199 44.5781 512.203 45.7188C512.21 46.8766 512.217 48.0345 512.224 49.2274C512.242 52.985 512.248 56.7424 512.25 60.5001C512.251 62.4145 512.251 62.4145 512.252 64.3676C512.237 82.7911 511.856 100.771 509 119C508.828 120.162 508.657 121.325 508.48 122.523C498.142 191.721 470.443 253.581 424 306C423.201 306.911 422.402 307.823 421.578 308.762C415.74 315.278 409.614 321.512 403.454 327.722C402.043 329.144 400.637 330.57 399.231 331.996C393.85 337.384 388.32 342.338 382.312 347.021C378.901 349.941 377.215 351.748 376.438 356.279C376.35 357.581 376.263 358.883 376.172 360.224C376.093 361.306 376.093 361.306 376.013 362.409C375.901 363.973 375.795 365.536 375.694 367.101C375.533 369.588 375.356 372.074 375.173 374.56C374.723 380.742 374.301 386.926 373.881 393.11C373.527 398.327 373.159 403.542 372.776 408.757C372.602 411.185 372.446 413.613 372.291 416.042C371.115 432.921 367.348 444.626 354.464 455.955C350.719 459.063 346.742 461.716 342.656 464.352C341.781 464.925 340.906 465.498 340.004 466.089C337.174 467.941 334.337 469.783 331.5 471.625C328.541 473.557 325.584 475.491 322.626 477.425C320.638 478.725 318.649 480.025 316.659 481.324C310.415 485.404 304.2 489.524 298.012 493.688C297.25 494.199 296.489 494.711 295.704 495.238C292.84 497.164 289.977 499.09 287.12 501.027C285.202 502.328 283.279 503.622 281.355 504.914C280.29 505.636 279.224 506.357 278.126 507.1C269.861 512.124 262.634 512.923 253 512C246.542 510.301 240.515 506.75 236.745 501.129C232.4 493.165 231.254 484.839 229.938 476C229.687 474.401 229.436 472.803 229.183 471.205C228.679 467.998 228.184 464.791 227.698 461.582C227.063 457.396 226.401 453.215 225.73 449.035C225.361 446.711 224.993 444.387 224.625 442.063C224.374 440.476 224.374 440.476 224.117 438.857C223.967 437.885 223.818 436.912 223.664 435.91C223.535 435.076 223.405 434.242 223.272 433.383C222.989 430.902 222.953 428.495 223 426C222.34 426.33 221.68 426.66 221 427C207.701 427.958 196.706 426.401 186.19 417.461C176.793 409.148 167.998 400.203 159.113 391.352C158.215 390.458 157.318 389.564 156.393 388.643C152.134 384.404 147.878 380.162 143.625 375.917C138.751 371.053 133.868 366.197 128.979 361.347C124.712 357.115 120.457 352.872 116.206 348.624C114.409 346.833 112.609 345.044 110.806 343.259C108.279 340.757 105.766 338.243 103.255 335.725C102.52 335.003 101.785 334.28 101.027 333.536C90.0878 322.487 84.7006 311.789 84.7581 296.408C84.856 291.288 84.856 291.288 86 289C85.3459 288.948 84.6918 288.895 84.0178 288.841C76.9464 288.241 69.9544 287.348 62.9375 286.293C61.825 286.126 60.7124 285.96 59.5662 285.788C57.2297 285.436 54.8935 285.082 52.5576 284.726C49.0112 284.189 45.4628 283.668 41.9141 283.147C39.6301 282.801 37.3462 282.454 35.0625 282.106C34.0163 281.954 32.9702 281.803 31.8923 281.647C20.6666 279.897 10.8701 277.358 3.75 268.063C0.672556 262.677 -0.327486 257.937 -0.4375 251.75C-0.477461 250.528 -0.517422 249.306 -0.558594 248.047C0.128508 238.65 7.38699 230.127 12.5 222.625C14.0931 220.268 15.6814 217.908 17.2695 215.547C17.7041 214.902 18.1387 214.257 18.5865 213.592C22.5633 207.679 26.4784 201.725 30.3867 195.766C31.0283 194.788 31.6699 193.811 32.331 192.803C34.9241 188.852 37.517 184.9 40.1035 180.945C41.9341 178.146 43.7694 175.35 45.6055 172.555C46.1466 171.724 46.6877 170.894 47.2453 170.038C55.1652 158.005 63.4214 145.886 78 142C88.0493 140.281 98.2232 139.776 108.39 139.245C112.677 139.016 116.963 138.758 121.249 138.502C124.943 138.284 128.636 138.087 132.333 137.932C150.341 138.122 150.341 138.122 165.765 130.899C167.796 128.419 169.414 125.779 171 123C172.114 121.634 173.262 120.295 174.453 118.996C174.995 118.372 175.537 117.748 176.096 117.105C179.98 112.812 184.085 108.73 188.178 104.637C189.739 103.074 191.291 101.503 192.844 99.9317C198.523 94.2216 204.312 88.9072 210.634 83.9048C212.849 82.1219 214.93 80.2605 217 78.3126C274.695 26.5933 358.5 0.0845016 435.07 -0.203064ZM226 112C225.186 112.73 225.186 112.73 224.355 113.474C212.174 124.406 200.04 135.695 189.918 148.59C188.135 150.83 186.265 152.908 184.312 155C168.827 172.274 156.261 192.784 145 213C144.402 214.056 144.402 214.056 143.792 215.132C143.416 215.83 143.04 216.527 142.652 217.246C142.311 217.871 141.969 218.495 141.617 219.138C140.828 221.518 141.211 222.642 142 225C143.823 227.117 145.651 229.069 147.629 231.031C148.223 231.631 148.816 232.231 149.428 232.85C151.424 234.864 153.43 236.868 155.437 238.872C156.868 240.312 158.298 241.753 159.728 243.194C163.617 247.11 167.517 251.016 171.418 254.92C174.671 258.176 177.92 261.436 181.17 264.696C188.832 272.383 196.503 280.061 204.179 287.735C212.107 295.661 220.018 303.604 227.922 311.555C234.701 318.373 241.492 325.18 248.291 331.978C252.356 336.042 256.415 340.11 260.463 344.189C264.268 348.024 268.088 351.843 271.918 355.652C273.324 357.055 274.725 358.463 276.121 359.876C278.021 361.8 279.939 363.704 281.863 365.604C282.416 366.173 282.968 366.741 283.538 367.327C285.244 369.055 285.244 369.055 288 371C292.589 370.889 296.452 368.452 300.438 366.313C301.169 365.921 301.901 365.529 302.654 365.126C319.074 356.163 334.419 345.692 349 334C350.025 333.188 351.05 332.376 352.105 331.539C357.657 327.076 362.967 322.388 368.199 317.555C370.372 315.573 372.57 313.642 374.797 311.723C379.237 307.849 383.409 303.739 387.562 299.563C388.279 298.85 388.995 298.138 389.732 297.404C394.361 292.767 398.756 287.991 403 283C403.544 282.363 404.087 281.726 404.648 281.07C456.059 220.406 481.474 144.701 481.316 65.3282C481.312 61.9477 481.336 58.568 481.361 55.1876C481.364 53.0209 481.364 50.8542 481.363 48.6876C481.377 47.1846 481.377 47.1846 481.391 45.6512C481.397 38.7971 481.397 38.7971 478 33.0001C474.949 30.8782 472.209 30.6954 468.547 30.5508C467.465 30.5067 466.384 30.4625 465.27 30.4171C464.108 30.3826 462.947 30.3481 461.75 30.3126C460.541 30.2742 459.333 30.2359 458.088 30.1964C373.191 27.9527 289.382 54.6575 226 112ZM105.913 170.062C103.477 170.252 101.04 170.417 98.6016 170.582C97.0363 170.704 95.4712 170.828 93.9062 170.953C93.1854 170.998 92.4645 171.043 91.7218 171.089C86.8799 171.516 84.3502 172.488 81 176C78.6911 179.07 76.6011 182.261 74.5195 185.488C73.9066 186.424 73.2937 187.359 72.6623 188.323C70.7045 191.314 68.7583 194.313 66.8125 197.313C65.5236 199.288 64.2339 201.262 62.9434 203.236C61.0511 206.132 59.1596 209.028 57.2717 211.926C52.9021 218.633 48.4824 225.305 44.031 231.959C41.6142 235.578 39.2277 239.214 36.875 242.875C36.4909 243.467 36.1067 244.058 35.7109 244.668C33.8174 247.146 33.8174 247.146 33 250C40.3796 251.176 47.7597 252.35 55.1402 253.52C58.5672 254.064 61.9941 254.608 65.4207 255.155C69.3595 255.783 73.2989 256.407 77.2383 257.031C78.4696 257.228 79.7009 257.425 80.9696 257.628C82.1105 257.808 83.2515 257.988 84.427 258.174C85.4329 258.334 86.4389 258.494 87.4753 258.658C90.0708 259.067 90.0709 259.067 93 259C93.215 258.374 93.4301 257.747 93.6516 257.102C103.415 228.856 114.85 201.011 131.648 176.15C134.133 172.868 134.133 172.868 135 169C125.25 168.805 115.628 169.287 105.913 170.062ZM127 254C123.629 263.172 121.009 272.448 118.688 281.938C118.421 283.003 118.155 284.068 117.88 285.166C115.787 293.52 115.787 293.52 116 302C117.286 303.882 117.286 303.882 119.002 305.691C119.64 306.392 120.278 307.093 120.935 307.815C124.419 311.503 127.974 315.113 131.566 318.695C132.393 319.524 133.219 320.352 134.071 321.206C136.781 323.92 139.494 326.63 142.207 329.34C144.098 331.232 145.989 333.124 147.88 335.016C151.829 338.967 155.781 342.916 159.734 346.865C164.305 351.43 168.872 355.999 173.437 360.569C177.366 364.503 181.296 368.434 185.229 372.364C187.574 374.707 189.918 377.051 192.261 379.397C194.865 382.004 197.473 384.608 200.081 387.211C200.858 387.989 201.635 388.768 202.435 389.57C203.143 390.275 203.85 390.98 204.58 391.707C205.196 392.322 205.811 392.938 206.446 393.572C209.31 396.204 211.718 396.253 215.539 396.201C220.488 395.797 225.257 394.514 230.062 393.313C231.162 393.044 232.261 392.775 233.394 392.498C241.756 390.411 249.911 387.973 258 385C252.411 378.187 246.181 372.04 239.952 365.823C238.731 364.6 237.51 363.377 236.289 362.154C232.99 358.851 229.688 355.551 226.385 352.251C222.928 348.796 219.472 345.338 216.017 341.881C210.221 336.083 204.423 330.288 198.624 324.493C191.911 317.786 185.202 311.075 178.495 304.362C172.735 298.598 166.973 292.836 161.21 287.075C157.768 283.635 154.326 280.193 150.887 276.75C147.659 273.52 144.429 270.292 141.197 267.066C140.008 265.878 138.82 264.69 137.633 263.5C136.02 261.885 134.404 260.272 132.787 258.66C131.882 257.755 130.976 256.85 130.043 255.917C128.345 253.886 128.345 253.886 127 254ZM335.25 380.75C311.988 396.023 286.753 407.085 260.513 416.106C257.981 417.007 255.49 417.986 253 419C255.57 439.066 258.799 459.027 262 479C270.407 474.658 278.165 469.337 286 464.063C288.929 462.095 291.859 460.13 294.789 458.164C295.539 457.66 296.289 457.157 297.062 456.638C302.484 453.001 307.935 449.411 313.398 445.836C315.66 444.35 317.921 442.863 320.182 441.376C321.637 440.422 323.094 439.471 324.553 438.525C326.591 437.202 328.621 435.866 330.648 434.527C331.25 434.142 331.852 433.756 332.472 433.359C336.037 430.984 338.297 428.953 340 425C340.45 422.386 340.761 419.943 340.949 417.313C341.012 416.574 341.074 415.835 341.138 415.073C341.267 413.51 341.391 411.947 341.508 410.383C341.685 408.034 341.881 405.687 342.08 403.34C342.802 394.537 343.184 385.837 343 377C339.801 377 337.874 378.98 335.25 380.75Z" fill="white"/>
<path d="M395.91 99.9452C411.733 112.026 421.438 128.513 425.609 147.82C428.096 168.061 425.166 189.039 412.704 205.736C409.702 209.407 406.411 212.711 403 216C402.282 216.737 401.564 217.475 400.824 218.234C389.125 229.603 372.196 236.303 356 237C355.198 237.052 354.396 237.103 353.57 237.156C333.657 237.865 314.787 230.631 299.812 217.687C287.436 206.035 279.021 191.824 276 175C275.659 173.298 275.659 173.298 275.312 171.562C273.937 155.889 275.951 141.175 283 127C283.457 126.038 283.915 125.077 284.387 124.086C293.339 106.992 308.898 95.7274 326.637 89.0077C350.749 81.7824 375.139 86.061 395.91 99.9452ZM316.625 132.437C309.376 141.101 305.223 152.237 305.719 163.66C306.831 172.919 309.621 180.395 315 188C315.661 188.955 315.661 188.955 316.336 189.93C322.379 197.789 331.531 202.584 341 205C341.825 205.227 342.65 205.454 343.5 205.687C356.005 207.251 367.586 204.076 378 197C386.713 189.978 393.158 180.125 395 169C396.078 155.15 393.656 145.453 386 134C385.422 133.113 384.845 132.226 384.25 131.312C375.124 121.933 363.901 116.946 350.937 116.687C336.938 116.672 326.088 122.311 316.625 132.437Z" fill="white"/>
<path d="M118.312 389.75C122.403 393.175 123.699 395.669 124.875 400.875C125.319 406.031 123.753 409.8 120.586 413.774C115.943 419.047 111.084 424.064 106.115 429.03C104.823 430.327 104.823 430.327 103.505 431.65C101.167 433.997 98.8256 436.341 96.4832 438.684C95.017 440.151 93.5516 441.618 92.0863 443.086C86.9673 448.215 81.8457 453.34 76.7217 458.464C71.9552 463.229 67.1943 468.001 62.436 472.775C58.3374 476.887 54.2351 480.994 50.1297 485.099C47.6832 487.545 45.2382 489.993 42.7971 492.445C40.0792 495.174 37.3532 497.896 34.6265 500.616C33.4216 501.83 33.4216 501.83 32.1924 503.067C31.4468 503.809 30.7012 504.55 29.933 505.314C29.2903 505.957 28.6477 506.601 27.9856 507.263C22.7167 511.872 18.7277 512.536 11.8828 512.351C7.97894 511.875 5.8427 510.697 3 508C0.400937 504.334 -0.47428 501.675 -0.5625 497.187C-0.605039 496.212 -0.647578 495.236 -0.691406 494.23C1.0878 485.917 9.23903 479.474 15.0471 473.694C15.9373 472.8 16.8275 471.907 17.7446 470.986C20.1655 468.556 22.5926 466.132 25.0212 463.71C27.571 461.165 30.1158 458.616 32.6615 456.067C36.9323 451.793 41.2072 447.522 45.4846 443.255C50.4236 438.327 55.3552 433.391 60.2832 428.452C64.526 424.2 68.7726 419.953 73.0226 415.708C75.556 413.178 78.0881 410.646 80.6167 408.111C83.4329 405.288 86.2571 402.473 89.0823 399.659C90.3316 398.403 90.3316 398.403 91.6061 397.123C92.3784 396.356 93.1507 395.589 93.9464 394.8C94.6125 394.134 95.2785 393.469 95.9647 392.784C102.906 386.701 110.027 385.373 118.312 389.75Z" fill="white"/>
<path d="M160 433C164.401 435.282 166.95 437.469 169 442C170.435 446.966 169.803 451.22 168 456C166.33 458.212 164.844 459.943 162.879 461.834C162.359 462.358 161.838 462.883 161.302 463.424C159.593 465.138 157.864 466.831 156.133 468.524C154.933 469.717 153.735 470.911 152.538 472.107C150.034 474.602 147.52 477.088 144.998 479.565C141.767 482.739 138.554 485.93 135.347 489.128C132.876 491.591 130.399 494.049 127.919 496.504C126.733 497.679 125.547 498.856 124.362 500.033C122.707 501.675 121.044 503.31 119.379 504.943C118.892 505.428 118.405 505.913 117.902 506.413C113.825 510.389 110.844 512.286 105.125 512.375C100.316 512.262 97.6459 511.299 94 508C89.8229 503.493 89.5364 499.664 89.4688 493.781C90.5751 487.99 94.8987 483.847 98.9329 479.777C99.4099 479.293 99.8869 478.809 100.378 478.311C101.941 476.729 103.511 475.155 105.082 473.582C106.181 472.477 107.279 471.372 108.378 470.266C110.675 467.957 112.976 465.653 115.28 463.35C118.222 460.408 121.15 457.453 124.075 454.493C126.337 452.209 128.608 449.933 130.883 447.66C131.966 446.575 133.046 445.486 134.122 444.394C135.632 442.865 137.154 441.349 138.679 439.835C139.54 438.972 140.4 438.108 141.287 437.219C147.133 432.438 152.695 431.044 160 433Z" fill="white"/>
<path d="M74.8126 345.688C78.065 349.126 79.8881 352.427 80.0978 357.242C79.5591 365.047 75.4471 369.802 70.0196 375.239C69.2969 375.967 69.2969 375.967 68.5595 376.71C66.9822 378.296 65.3977 379.875 63.8126 381.453C62.7066 382.561 61.6009 383.668 60.4955 384.776C58.1855 387.089 55.8719 389.398 53.5558 391.705C50.5899 394.66 47.6331 397.623 44.679 400.589C42.4006 402.875 40.1175 405.156 37.833 407.435C36.7407 408.526 35.6499 409.618 34.5606 410.712C33.0387 412.239 31.5106 413.76 29.9806 415.279C28.6796 416.577 28.6796 416.577 27.3524 417.902C22.6244 422.119 18.8847 422.445 12.6915 422.313C7.52182 421.712 4.99041 419.095 1.62512 415.375C-0.523962 410.912 -1.00947 406.87 0.000117362 402C2.61712 397.694 5.57114 394.161 9.1007 390.577C9.59562 390.072 10.0905 389.568 10.6005 389.047C12.223 387.396 13.853 385.752 15.4845 384.11C16.0445 383.544 16.6046 382.978 17.1816 382.395C20.142 379.405 23.1081 376.42 26.0792 373.441C29.137 370.372 32.1757 367.285 35.2104 364.193C37.5579 361.809 39.9187 359.437 42.2834 357.07C43.4094 355.938 44.5305 354.801 45.6464 353.658C47.211 352.06 48.7937 350.481 50.382 348.905C51.2759 348.004 52.1698 347.103 53.0909 346.174C60.167 340.886 67.4794 341.288 74.8126 345.688Z" fill="white"/>
</g>
<defs>
<clipPath id="clip0_71_47">
<rect width="512" height="512" fill="white"/>
</clipPath>
</defs>
</svg>
