<svg width="512" height="512" viewBox="0 0 512 512" fill="none" xmlns="http://www.w3.org/2000/svg">
<path d="M111.161 31.7427C112.21 31.7363 113.259 31.7298 114.34 31.7232C115.492 31.7263 116.643 31.7294 117.83 31.7326C119.054 31.7281 120.278 31.7235 121.54 31.7189C124.94 31.7084 128.339 31.7069 131.739 31.7092C135.405 31.7097 139.071 31.6986 142.737 31.6891C149.92 31.6725 157.104 31.667 164.287 31.6659C170.125 31.665 175.963 31.6608 181.8 31.6545C198.348 31.6369 214.895 31.6277 231.442 31.6292C232.334 31.6292 233.227 31.6293 234.146 31.6294C235.039 31.6295 235.933 31.6296 236.853 31.6297C251.334 31.6305 265.815 31.6113 280.295 31.5831C295.16 31.5544 310.024 31.5406 324.888 31.5423C333.235 31.543 341.582 31.5375 349.929 31.516C357.035 31.4978 364.142 31.4934 371.248 31.507C374.874 31.5135 378.5 31.5136 382.126 31.4963C386.056 31.4777 389.986 31.4901 393.916 31.5055C395.637 31.4901 395.637 31.4901 397.392 31.4744C403.61 31.5286 407.276 31.8389 412 36C412.873 36.7483 412.873 36.7483 413.763 37.5118C414.242 37.9896 414.721 38.4674 415.214 38.9597C416.055 39.7923 416.055 39.7923 416.913 40.6417C417.505 41.2382 418.098 41.8347 418.708 42.4492C419.349 43.0871 419.991 43.725 420.652 44.3822C422.757 46.479 424.855 48.583 426.953 50.6875C428.419 52.1522 429.886 53.6167 431.352 55.0808C434.418 58.1441 437.481 61.2109 440.541 64.2803C444.464 68.2147 448.396 72.14 452.331 76.0627C455.357 79.0823 458.379 82.1065 461.4 85.1322C462.848 86.5818 464.298 88.0299 465.749 89.4764C467.774 91.4964 469.793 93.5227 471.81 95.5508C472.41 96.1473 473.011 96.7438 473.629 97.3583C478.74 102.521 480.25 105.618 480.301 113.063C480.306 113.757 480.312 114.452 480.318 115.168C480.33 117.446 480.323 119.723 480.312 122C480.31 123.175 480.31 123.175 480.307 124.373C480.067 185.754 462.597 245.673 435.562 300.375C435.263 300.985 434.964 301.594 434.656 302.222C433.802 303.952 432.935 305.676 432.066 307.398C431.571 308.385 431.075 309.372 430.565 310.388C428.979 313.034 427.271 314.928 425 317C421.687 313.835 418.394 310.651 415.118 307.448C414.001 306.361 412.879 305.28 411.751 304.204C410.131 302.656 408.531 301.09 406.934 299.52C406.171 298.804 406.171 298.804 405.393 298.073C403.998 296.679 403.998 296.679 402 294C402.082 290.447 403.453 287.78 405.117 284.684C405.772 283.436 405.772 283.436 406.44 282.163C406.914 281.263 407.387 280.364 407.875 279.438C427.052 241.965 438.483 200.622 444 159C444.117 158.117 444.234 157.233 444.355 156.323C444.866 152.313 445.285 148.321 445.57 144.289C445.811 140.962 446.188 137.711 446.704 134.417C448.438 119.962 442.857 108.764 434.138 97.6363C432.168 95.2394 430.136 92.9089 428.062 90.6016C427.53 90.0079 426.998 89.4143 426.449 88.8026C403.601 63.9244 375.168 59.8767 342.91 58.3905C319.444 57.411 295.971 57.657 272.497 58.1386C260.706 58.3756 248.943 58.3323 237.152 58.0903C158.824 53.128 158.824 53.128 90.7119 83.4113C88.3798 85.745 86.1401 88.1456 83.9375 90.6016C83.4119 91.1865 82.8862 91.7714 82.3447 92.3741C72.8582 103.142 64.5396 114.828 64.8511 129.77C65.0315 132.173 65.3012 134.52 65.6755 136.9C66.1467 139.949 66.2793 143.008 66.4453 146.086C66.6561 148.184 66.8828 150.28 67.125 152.375C67.2555 153.534 67.386 154.694 67.5205 155.888C73.1195 202.4 87.1848 247.56 109 289C109.382 289.737 109.763 290.474 110.157 291.233C123.642 317.153 140.608 341.173 160 363C160.655 363.742 161.309 364.484 161.983 365.249C167.745 371.727 173.747 377.93 179.875 384.062C180.792 384.991 181.708 385.92 182.652 386.877C188.79 393.027 195.203 398.595 202 404C203.34 405.108 204.678 406.22 206.012 407.336C213.649 413.672 221.442 419.56 229.691 425.074C232.943 427.254 236.117 429.523 239.277 431.832C240.625 432.807 240.625 432.807 241.999 433.801C243.762 435.079 245.517 436.368 247.263 437.67C248.067 438.248 248.871 438.826 249.699 439.422C250.409 439.944 251.119 440.465 251.85 441.003C254.695 442.322 256.053 441.971 259 441C261.082 439.91 261.082 439.91 263.047 438.48C264.177 437.698 264.177 437.698 265.331 436.9C266.129 436.335 266.927 435.77 267.75 435.188C269.006 434.311 269.006 434.311 270.288 433.416C272.022 432.205 273.753 430.99 275.481 429.771C277.799 428.141 280.129 426.53 282.465 424.926C292.379 418.082 301.773 410.74 311 403C311.626 402.479 312.251 401.957 312.896 401.42C320.646 394.953 328.003 388.287 335 381C338.668 382.539 340.986 384.755 343.766 387.57C344.655 388.466 345.545 389.362 346.461 390.285C347.381 391.222 348.302 392.159 349.25 393.125C350.195 394.08 351.14 395.034 352.086 395.988C354.395 398.321 356.7 400.658 359 403C357.095 407.151 354.286 410.017 351.062 413.188C350.189 414.054 350.189 414.054 349.297 414.937C344.993 419.148 340.509 423.035 335.785 426.773C333.31 428.752 330.91 430.798 328.52 432.878C315.939 443.781 302.06 453.069 288.313 462.424C285.599 464.273 282.889 466.129 280.18 467.984C278.162 469.365 276.143 470.745 274.125 472.125C273.155 472.789 272.184 473.454 271.185 474.138C270.281 474.755 269.377 475.372 268.445 476.008C267.636 476.561 266.827 477.114 265.993 477.684C262.713 479.85 260.491 480.296 256.562 480.5C255.594 480.572 254.626 480.644 253.629 480.719C247.917 479.587 243.733 476.283 239 473C238.088 472.379 237.175 471.758 236.236 471.118C233.436 469.2 230.654 467.26 227.875 465.312C226.879 464.616 225.882 463.92 224.856 463.203C222.846 461.797 220.837 460.39 218.828 458.982C216.284 457.199 213.736 455.421 211.188 453.645C197.529 444.1 184.498 434.027 172 423C171.277 422.366 170.554 421.732 169.808 421.078C163.193 415.21 156.882 409.068 150.632 402.817C148.941 401.129 147.243 399.449 145.545 397.77C138.909 391.167 132.808 384.355 127 377C125.928 375.706 124.851 374.415 123.77 373.129C93.0645 336.251 69.7806 293.222 54 248C53.6534 247.01 53.3068 246.019 52.9497 244.999C43.6255 217.998 37.926 190.24 34 162C33.8672 161.065 33.7345 160.13 33.5977 159.167C32.0509 147.807 31.767 136.407 31.6505 124.957C31.6337 123.374 31.6111 121.791 31.5826 120.208C31.5468 117.973 31.539 115.739 31.5391 113.504C31.5308 112.203 31.5226 110.901 31.5142 109.561C32.4657 102.587 37.653 98.0557 42.4492 93.292C43.0871 92.6506 43.725 92.0092 44.3822 91.3484C46.479 89.2428 48.583 87.1447 50.6875 85.0469C52.1522 83.5808 53.6167 82.1144 55.0808 80.6478C58.1441 77.5816 61.2109 74.519 64.2803 71.459C68.2147 67.536 72.14 63.6041 76.0627 59.6694C79.0823 56.6427 82.1065 53.6207 85.1322 50.6002C86.5818 49.1519 88.0299 47.7022 89.4764 46.251C91.4964 44.2259 93.5227 42.2074 95.5508 40.1904C96.1473 39.5899 96.7437 38.9894 97.3583 38.3707C97.9134 37.8212 98.4684 37.2718 99.0403 36.7058C99.5181 36.2287 99.9959 35.7516 100.488 35.2601C103.896 32.42 106.77 31.7496 111.161 31.7427Z" fill="white"/>
<path d="M335 122C339.163 125.496 343.087 129.228 347 133C347.718 133.655 348.436 134.31 349.176 134.984C373.065 157.39 383.931 191.027 385 223C385.463 250.331 376.591 279.801 359 301C360.329 303.968 361.778 306.006 364.125 308.25C365.074 309.158 366.022 310.065 367 311C370.441 309.47 373.091 307.373 376 305C378.656 303.672 380.783 303.758 383.75 303.688C384.776 303.65 385.802 303.613 386.859 303.574C393.297 304.447 397.754 309.45 402.185 313.863C403.065 314.728 403.065 314.728 403.962 315.61C405.886 317.505 407.803 319.408 409.719 321.313C410.708 322.294 410.709 322.294 411.719 323.295C415.213 326.76 418.701 330.23 422.185 333.705C425.762 337.271 429.357 340.818 432.958 344.361C435.742 347.109 438.513 349.87 441.281 352.634C442.6 353.947 443.923 355.254 445.252 356.557C455.318 366.436 463.91 375.984 464.292 390.838C464.393 402.195 462.542 410.993 455.047 419.93C446.323 428.753 437.351 432.252 425.187 432.5C405.192 432.381 394.02 418.181 380.844 405.012C379.607 403.779 378.371 402.545 377.134 401.312C374.564 398.748 371.996 396.182 369.429 393.615C366.142 390.327 362.847 387.046 359.55 383.767C357.004 381.232 354.463 378.692 351.922 376.151C350.709 374.939 349.493 373.728 348.277 372.519C346.583 370.835 344.895 369.144 343.209 367.452C342.708 366.957 342.207 366.462 341.691 365.952C337.227 361.447 335.705 358.457 335.625 352.125C335.725 345.804 337.477 342.703 341.75 338.125C342.162 337.754 342.575 337.383 343 337C341.349 332.708 338.262 330.121 335 327C331.58 328.608 328.489 330.583 325.312 332.625C304.017 345.9 281.628 352.449 256.5 352.375C255.799 352.374 255.098 352.374 254.376 352.373C220.5 352.253 190.46 339.418 166 316C164.88 314.975 164.88 314.975 163.738 313.93C157.117 307.667 152.02 300.557 147 293C146.371 292.067 145.742 291.133 145.094 290.172C127.764 262.602 123.042 226.205 130.161 194.623C136.018 171.427 147.499 151.234 164 134C164.683 133.254 165.366 132.507 166.07 131.738C172.333 125.118 179.443 120.02 187 115C187.933 114.371 188.866 113.742 189.828 113.094C233.514 85.6338 294.882 90.1702 335 122ZM192 153C191.127 153.804 190.254 154.609 189.355 155.438C173.304 170.839 161.243 194.081 160.761 216.676C160.282 245.17 167.077 269.225 187.25 290.215C206.245 309.453 230.073 319.367 257 320C280.367 319.621 302.864 310.926 320 295C320.872 294.196 321.745 293.391 322.644 292.563C337.862 277.96 349.859 256.58 351.177 235.116C351.653 214.207 351.653 214.207 347 194C346.626 192.943 346.252 191.886 345.867 190.797C336.044 165.426 316.762 145.945 292 135C258.247 121.686 218.687 128.198 192 153ZM381.273 345.531C380.333 346.506 380.333 346.506 379.375 347.5C378.743 348.15 378.111 348.799 377.461 349.469C376.979 349.974 376.496 350.479 376 351C377.501 354.498 379.518 356.782 382.187 359.477C383.051 360.355 383.916 361.232 384.807 362.136C385.752 363.085 386.698 364.033 387.644 364.98C388.616 365.959 389.588 366.937 390.559 367.916C392.594 369.963 394.633 372.005 396.675 374.046C399.288 376.658 401.887 379.285 404.482 381.914C406.484 383.938 408.494 385.953 410.507 387.965C411.469 388.929 412.428 389.897 413.384 390.868C414.721 392.225 416.073 393.568 417.425 394.911C418.189 395.678 418.954 396.446 419.742 397.236C422.254 399.198 423.833 399.803 427 400C429.457 398.543 429.457 398.543 431 396C431.475 392.317 431.426 390.606 429.267 387.532C428.456 386.728 427.645 385.924 426.809 385.096C425.894 384.176 424.98 383.255 424.038 382.307C423.028 381.321 422.018 380.336 421.008 379.352C419.98 378.33 418.953 377.307 417.928 376.283C415.78 374.144 413.622 372.015 411.456 369.894C408.676 367.17 405.914 364.43 403.157 361.682C401.039 359.572 398.916 357.469 396.79 355.367C395.769 354.357 394.749 353.347 393.73 352.336C392.309 350.928 390.879 349.527 389.449 348.127C388.637 347.328 387.824 346.529 386.987 345.706C384.452 343.529 383.795 343.295 381.273 345.531Z" fill="white"/>
<path d="M310 176C314.885 178.268 317.732 181.115 320 186C320.722 191.359 320.845 196.164 318.563 201.125C317.717 202.074 316.871 203.022 316 204C315.356 204.723 314.711 205.446 314.047 206.191C312.513 207.905 310.968 209.609 309.414 211.305C307.08 213.911 304.876 216.583 302.688 219.312C298.797 224.127 294.67 228.649 290.442 233.163C287.325 236.511 284.365 239.93 281.5 243.5C277.635 248.314 273.534 252.846 269.318 257.351C265.926 260.977 262.655 264.675 259.5 268.512C256.08 271.905 252.839 272.315 248.125 272.375C247.117 272.403 246.109 272.432 245.07 272.461C237.905 271.385 232.937 265.231 228.047 260.312C226.935 259.203 226.935 259.203 225.8 258.071C224.241 256.514 222.685 254.954 221.131 253.392C218.751 251.001 216.361 248.621 213.969 246.242C212.453 244.725 210.937 243.206 209.422 241.687C208.707 240.977 207.993 240.266 207.257 239.534C206.595 238.867 205.934 238.199 205.253 237.512C204.672 236.929 204.09 236.346 203.491 235.745C199.541 231.122 199.573 226.805 199.688 220.914C200.256 215.613 202.779 213.16 206.5 209.625C211.558 207.277 216.517 207.029 222 208C228.1 211.178 232.605 216.381 237.375 221.25C238.207 222.09 239.038 222.931 239.895 223.797C241.934 225.86 243.969 227.928 246 230C249.551 228.34 251.586 226.525 254.188 223.562C254.979 222.663 255.771 221.763 256.586 220.836C258.871 218.152 261.1 215.431 263.313 212.687C267.199 207.878 271.318 203.357 275.547 198.852C278.795 195.37 281.844 191.79 284.813 188.062C292.336 178.692 297.789 174.865 310 176Z" fill="white"/>
</svg>
