<svg width="512" height="512" viewBox="0 0 512 512" fill="none" xmlns="http://www.w3.org/2000/svg">
<path d="M383 50.9999C384.721 51.5104 384.721 51.5104 386.477 52.0312C399.871 56.4268 416.352 63.8118 425.575 74.8925C428.668 78.6997 428.668 78.6997 433.109 80.2043C435.572 79.8003 437.817 79.1586 440.188 78.3749C441.058 78.12 441.928 77.8651 442.824 77.6025C445.566 76.7809 448.282 75.8969 451 74.9999C451.849 74.7328 452.698 74.4656 453.573 74.1904C466.241 70.1976 478.136 64.94 490 58.9999C490.766 58.6176 491.533 58.2352 492.322 57.8413C494.216 56.8958 496.108 55.9481 498 54.9999C495.663 75.4854 478.665 94.5756 463.395 107.144C461.631 108.477 459.822 109.749 458 111C465.208 110.494 471.962 109.236 478.938 107.375C479.925 107.116 480.913 106.856 481.93 106.589C490.304 104.325 498.379 101.465 506.457 98.3203C510 96.9999 510 96.9999 512 96.9999C507.935 108.89 496.58 119.076 488 128C487.48 128.547 486.961 129.094 486.425 129.657C484.836 131.324 483.233 132.976 481.625 134.625C481.096 135.181 480.568 135.737 480.023 136.31C477.228 139.151 474.673 141.304 471.102 143.102C466.77 145.411 463.309 147.533 461 152C459.257 160.726 459.774 169.791 459.951 178.647C461.137 247.473 426.347 321.693 379.695 371.117C377.593 373.365 375.593 375.637 373.625 378C364.373 388.641 353.22 397.542 342 406C341.395 406.461 340.791 406.923 340.168 407.398C288.844 446.513 226.282 464.215 162.312 464.25C161.215 464.251 160.117 464.251 158.986 464.252C143.116 464.236 127.645 463.905 112 461C111.031 460.828 110.061 460.657 109.062 460.48C70.0546 453.449 33.4459 439.207 0 418C0.33 417.34 0.66 416.68 1 416C1.63422 416.072 2.26844 416.144 2.92188 416.219C54.0908 421.307 110.662 407.911 151 375C149.704 374.792 148.409 374.585 147.074 374.371C117.14 369.301 89.8273 356.501 71.6987 331.183C57 309.699 57 309.699 57 300C57.8108 300.072 58.6216 300.144 59.457 300.219C72.6657 301.326 84.8995 300.72 98 299C97.4754 298.804 96.9507 298.608 96.4102 298.406C93.5865 297.316 90.7931 296.166 88 295C87.3782 294.742 86.7564 294.484 86.1157 294.219C66.1911 285.823 48.5289 272.553 37 254C36.3426 252.964 35.6852 251.927 35.0078 250.859C24.61 233.673 18.9506 214.171 20 194C24.4642 195.424 28.7439 197.122 33.0625 198.937C43.0865 203.029 53.1871 205.292 64 206C62.2726 204.415 60.5431 202.832 58.8125 201.25C57.3681 199.927 57.3681 199.927 55.8945 198.578C53.1137 196.036 53.1137 196.036 50.4453 194.051C47.5652 191.635 45.3182 188.919 43.0625 185.937C42.6272 185.365 42.1919 184.793 41.7434 184.204C37.923 179.079 34.8022 173.747 32 168C31.5604 167.13 31.1209 166.26 30.668 165.363C18.9393 141.091 17.4345 112.374 25.7139 86.7944C28.1633 79.8224 31.2578 73.3632 35 66.9999C38.8253 68.5136 40.616 70.7369 43.1016 73.9609C47.8409 79.9059 52.9792 85.2768 58.375 90.6249C59.2438 91.5015 60.1127 92.3781 61.0078 93.2812C67.0253 99.2809 73.3351 104.733 80 110C80.6083 110.488 81.2166 110.976 81.8433 111.478C98.8753 125.087 117.429 136.637 137.071 146.068C138.877 146.941 140.672 147.839 142.465 148.738C176.61 165.446 213.469 172.445 251 176C250.859 175.168 250.719 174.336 250.573 173.479C249.502 166.891 248.636 160.49 248.688 153.812C248.693 153.013 248.699 152.213 248.705 151.389C249.316 120.555 262.41 94.8541 284.246 73.5038C310.051 50.0413 349.557 40.9591 383 50.9999Z" fill="#5B3E96" fill-opacity="0.7"/>
</svg>
