<svg width="302" height="195" viewBox="0 0 302 195" fill="none" xmlns="http://www.w3.org/2000/svg">
<path d="M2.08219 161.265C4.7557 156.759 8.48325 153.045 12.0587 149.249C14.5847 146.522 16.9392 143.722 19.2697 140.828C22.1557 137.252 25.1116 133.786 28.2072 130.39C31.3218 126.973 34.2991 123.485 37.2072 119.89C40.8175 115.427 44.5915 111.163 48.4572 106.921C50.7858 104.302 53.0028 101.615 55.2072 98.89C58.8175 94.4273 62.5915 90.1628 66.4572 85.9213C68.7858 83.3016 71.0028 80.6149 73.2072 77.89C76.8175 73.4273 80.5915 69.1628 84.4572 64.9213C86.7858 62.3016 89.0028 59.6149 91.2072 56.89C94.8175 52.4273 98.5915 48.1628 102.457 43.9213C104.786 41.3016 107.003 38.6149 109.207 35.89C112.815 31.4301 116.584 27.1662 120.453 22.933C122.823 20.2593 125.046 17.4985 127.27 14.7025C132.72 7.98715 138.278 1.32829 147.25 0.0189362C154.497 -0.163043 159.889 0.923208 165.707 5.39003C169.522 9.13846 172.837 13.3257 176.175 17.495C178.619 20.5176 181.166 23.4496 183.707 26.39C184.708 27.5562 185.708 28.7229 186.707 29.89C187.202 30.4675 187.697 31.045 188.207 31.64C193.707 38.0567 199.207 44.4734 204.707 50.89C205.45 51.7564 205.45 51.7564 206.207 52.6403C207.207 53.8061 208.206 54.9719 209.205 56.1378C211.716 59.068 214.228 61.9974 216.742 64.9252C222.04 71.0966 227.317 77.284 232.565 83.4979C237.411 89.2317 242.3 94.9283 247.191 100.624C249.698 103.544 252.203 106.467 254.707 109.39C255.707 110.557 256.707 111.723 257.707 112.89C263.707 119.89 269.707 126.89 275.707 133.89C276.203 134.468 276.698 135.046 277.209 135.641C278.204 136.802 279.197 137.964 280.19 139.127C282.765 142.141 285.359 145.134 287.988 148.101C288.527 148.715 289.066 149.328 289.621 149.96C290.64 151.12 291.666 152.274 292.699 153.421C299.009 160.637 301.362 166.751 301.027 176.398C300.354 182.688 297.447 186.388 292.707 190.39C286.725 194.573 280.892 195.409 273.707 194.39C263.978 191.515 258.102 182.761 252.027 175.214C249.824 172.532 247.547 169.954 245.207 167.39C241.288 163.09 237.615 158.631 233.957 154.109C231.772 151.469 229.515 148.923 227.207 146.39C224.184 143.07 221.282 139.692 218.457 136.203C213.242 129.763 207.794 123.535 202.354 117.287C199.771 114.311 197.207 111.321 194.645 108.328C194.154 107.754 193.663 107.181 193.157 106.59C192.168 105.435 191.18 104.279 190.191 103.124C187.698 100.211 185.203 97.3007 182.707 94.39C181.707 93.2234 180.707 92.0567 179.707 90.89C179.212 90.3125 178.717 89.735 178.207 89.14C176.707 87.39 175.207 85.64 173.707 83.89C173.211 83.3116 172.715 82.7333 172.204 82.1373C171.213 80.9801 170.222 79.8224 169.231 78.6642C166.608 75.5983 163.973 72.5438 161.32 69.5033C160.492 68.5491 160.492 68.5491 159.647 67.5756C158.585 66.3536 157.52 65.1347 156.451 63.9193C154.284 61.4172 152.765 59.5644 151.707 56.39C146.651 60.1497 142.987 64.585 139.063 69.4955C136.854 72.2099 134.568 74.8072 132.207 77.39C129.093 80.8074 126.115 84.2953 123.207 87.89C119.597 92.3528 115.823 96.6172 111.957 100.859C109.629 103.478 107.412 106.165 105.207 108.89C101.597 113.353 97.8229 117.617 93.9572 121.859C91.6286 124.478 89.4116 127.165 87.2072 129.89C84.2991 133.485 81.3218 136.973 78.2072 140.39C75.1844 143.71 72.2821 147.088 69.4572 150.578C65.3208 155.685 61.0497 160.66 56.7292 165.611C53.9449 168.803 51.1777 172.006 48.4533 175.249C47.9284 175.872 47.4035 176.494 46.8627 177.135C45.8801 178.302 44.9017 179.472 43.9286 180.647C38.7789 186.744 33.3482 192.749 25.0587 193.691C17.5572 193.723 12.7435 193.081 6.95719 187.953C0.414816 180.502 -2.17524 170.879 2.08219 161.265Z" fill="black"/>
</svg>
