<svg width="512" height="512" viewBox="0 0 512 512" fill="none" xmlns="http://www.w3.org/2000/svg">
<g clip-path="url(#clip0_152_8)">
<path d="M154.855 74.8706C157.32 74.8693 159.784 74.8675 162.248 74.8653C168.174 74.8613 174.1 74.8618 180.026 74.8647C184.854 74.867 189.681 74.8673 194.509 74.8662C195.549 74.866 195.549 74.866 196.611 74.8657C198.022 74.8654 199.433 74.8651 200.844 74.8648C213.993 74.8619 227.141 74.8652 240.29 74.8706C251.509 74.875 262.728 74.8742 273.946 74.8696C287.056 74.8643 300.167 74.8622 313.277 74.8652C314.682 74.8656 316.086 74.8659 317.491 74.8662C318.527 74.8664 318.527 74.8664 319.585 74.8667C324.392 74.8675 329.199 74.8661 334.006 74.8637C340.507 74.8606 347.008 74.8629 353.509 74.8686C355.872 74.8699 358.234 74.8696 360.597 74.8673C381.379 74.8495 402.338 74.8424 423 77.3125C424.674 77.5082 424.674 77.5082 426.382 77.7078C451.275 80.7738 477.139 87.3026 493.965 107.34C500.916 116.725 504.967 126.824 507.75 138.063C507.949 138.845 508.147 139.628 508.352 140.435C513.024 160.73 512.314 181.794 512.302 202.48C512.3 205.943 512.305 209.407 512.31 212.87C512.321 221.06 512.322 229.25 512.316 237.44C512.31 245.811 512.322 254.181 512.343 262.551C512.361 269.808 512.367 277.065 512.364 284.322C512.362 288.625 512.364 292.928 512.378 297.231C512.488 333.798 511.925 372.496 489 403C488.577 403.587 488.154 404.173 487.719 404.777C471.131 426.042 442.159 431.824 417 435C409.83 435.827 402.675 436.278 395.464 436.554C394.378 436.597 393.292 436.639 392.173 436.682C380.308 437.108 368.449 437.141 356.578 437.129C354.148 437.131 351.719 437.133 349.289 437.135C343.445 437.139 337.601 437.138 331.756 437.135C326.997 437.133 322.238 437.133 317.478 437.134C316.794 437.134 316.111 437.134 315.406 437.134C314.016 437.135 312.626 437.135 311.235 437.135C298.277 437.138 285.319 437.135 272.361 437.129C261.299 437.125 250.236 437.126 239.173 437.13C226.251 437.136 213.328 437.138 200.405 437.135C199.022 437.134 197.638 437.134 196.254 437.134C195.574 437.134 194.893 437.134 194.192 437.133C189.45 437.133 184.709 437.134 179.967 437.136C173.559 437.139 167.152 437.137 160.744 437.131C158.413 437.13 156.081 437.13 153.749 437.133C59.3741 437.215 59.3741 437.215 28.5468 406.617C27.7064 405.754 26.8659 404.89 26 404C24.9868 402.983 24.9868 402.983 23.9531 401.945C-2.03617 374.231 -0.322805 329.848 -0.30162 294.513C-0.300537 290.928 -0.305452 287.342 -0.310211 283.757C-0.321241 275.283 -0.321787 266.809 -0.315704 258.334C-0.309671 249.66 -0.321974 240.986 -0.343276 232.311C-0.361024 224.801 -0.366866 217.292 -0.363632 209.782C-0.361839 205.324 -0.364256 200.866 -0.378356 196.408C-0.580838 126.35 -0.580833 126.35 21.6367 103.273C46.1597 79.6827 82.6843 76.6542 115.134 75.4456C116.257 75.4035 117.38 75.3613 118.537 75.3179C130.644 74.8966 142.743 74.8591 154.855 74.8706ZM199 191C197.775 193.449 197.866 195.048 197.853 197.787C197.846 198.798 197.838 199.809 197.831 200.85C197.828 201.963 197.826 203.076 197.823 204.223C197.816 205.393 197.81 206.562 197.803 207.767C197.783 211.65 197.772 215.534 197.762 219.418C197.758 220.756 197.754 222.093 197.749 223.431C197.73 229.718 197.716 236.005 197.708 242.293C197.698 249.544 197.672 256.795 197.631 264.047C197.601 269.654 197.586 275.262 197.583 280.87C197.581 284.217 197.57 287.565 197.546 290.912C197.522 294.652 197.523 298.39 197.53 302.13C197.517 303.233 197.504 304.336 197.491 305.472C197.535 311.879 198.161 315.802 202 321C206.171 324.523 209.534 325.907 215 326C221.264 324.468 226.874 321.702 232.5 318.625C234.166 317.731 235.833 316.838 237.5 315.945C238.384 315.47 239.269 314.995 240.18 314.505C245.263 311.792 250.384 309.151 255.5 306.5C263.551 302.32 271.59 298.119 279.611 293.881C285.433 290.81 291.279 287.789 297.131 284.773C302.764 281.868 308.384 278.938 314 276C315.321 275.312 315.321 275.312 316.669 274.61C328.757 268.482 328.757 268.482 337 258C337.374 252.395 337.209 248.813 334 244C329.129 239.413 323.757 236.568 317.812 233.563C315.741 232.499 313.669 231.435 311.598 230.371C310.516 229.819 309.435 229.267 308.321 228.699C302.784 225.866 297.269 222.992 291.75 220.125C289.469 218.942 287.188 217.76 284.906 216.578C283.199 215.694 283.199 215.694 281.457 214.791C280.316 214.2 279.175 213.609 278 213C273.416 210.625 268.833 208.25 264.25 205.875C263.139 205.299 262.027 204.723 260.882 204.13C252.473 199.769 244.073 195.391 235.683 190.994C233.966 190.096 232.248 189.201 230.528 188.31C228.78 187.404 227.037 186.491 225.296 185.571C224.421 185.117 223.546 184.663 222.645 184.195C221.866 183.787 221.087 183.378 220.284 182.958C211.173 179.138 204.384 183.423 199 191Z" fill="#5B3E96" fill-opacity="0.5"/>
</g>
<defs>
<clipPath id="clip0_152_8">
<rect width="512" height="512" fill="white"/>
</clipPath>
</defs>
</svg>
